<?xml version="1.0" encoding="utf-8"?>
<!-- Generator: Adobe Illustrator 21.1.0, SVG Export Plug-In . SVG Version: 6.00 Build 0)  -->
<svg version="1.1" id="Layer_1" xmlns="http://www.w3.org/2000/svg" xmlns:xlink="http://www.w3.org/1999/xlink" x="0px" y="0px"
	 viewBox="0 0 22 22" style="enable-background:new 0 0 22 22;" xml:space="preserve">
<style type="text/css">
	.st0{fill:#FFFFFF;}
</style>
<path class="st0" d="M4.1,15.2v1.1h2.1v-1.1C6.2,15.2,4.1,15.2,4.1,15.2z M0,15.2v1.1h3v-1.1C3,15.2,0,15.2,0,15.2z M0,12v2.1h1V12
	H0z M0,8.9V11h1V8.9H0z M0,5.8v2.1h1V5.8H0z M15.2,5.6v1.3h1.1V5.6H15.2z M0,2.7v2.1h1V2.7H0z M15.2,2.4v2.1h1.1V2.4H15.2z M13.5,0
	v1h1.7v0.4h1.1V0H13.5z M10.4,0v1h2.1V0H10.4z M7.3,0v1h2.1V0H7.3z M4.2,0v1h2.1V0H4.2z M0,0v1.6h1V1h2.1V0H0z"/>
<path id="Fill-3" class="st0" d="M5.1,10.1C4.8,10.6,4.8,11,5,11.5c0.1,0.2,0.1,0.3,2.7,2.9l2.6,2.7l-0.7-0.2
	c-0.8-0.2-1.1-0.2-1.5-0.1c-0.2,0.1-0.3,0.2-0.6,0.4c-0.2,0.2-0.3,0.3-0.4,0.6c-0.2,0.6-0.1,1.1,0.4,1.6C8,19.8,8.3,20,9.8,20.6
	c2,0.8,3.9,1.3,5.2,1.4c0.6,0,0.8,0,1-0.3c0.1-0.2,0.1-0.5-0.1-0.7c-0.1-0.1-0.3-0.1-0.6-0.1c-1.5-0.1-3.5-0.7-6-1.7
	c-0.4-0.2-0.6-0.3-0.9-0.5c-0.3-0.2-0.3-0.3-0.3-0.4c0-0.2,0.1-0.4,0.4-0.4c0.1,0,0.9,0.2,1.8,0.4c0.9,0.2,1.7,0.4,1.9,0.4
	c0.3,0,0.6-0.1,0.5-0.5c-0.1-0.6-3.4-3.6-3.4-3.6c-3.2-3.2-3.7-3.5-3.2-4c0.4-0.4,0.9,0.1,1.5,0.7c0.6,0.6,1.5,1.5,1.5,1.5
	c2.7,2.6,2.5,2.5,2.9,2.3c0.2-0.1,0.4-0.4,0.3-0.6c0-0.2-0.1-0.3-1.1-1.2c-1.1-1.1-1.2-1.2-1.1-1.5c0-0.2,0.3-0.4,0.5-0.5
	c0.3-0.1,0.4,0,1.6,1.2c1,1,1.1,1.1,1.3,1.2c0.4,0.1,0.7-0.3,0.7-0.7c0-0.2-0.1-0.3-0.9-1c-0.9-0.9-1-1-0.9-1.3s0.5-0.5,0.8-0.4
	c0.1,0,0.3,0.2,1,0.9c0.9,0.9,1,1,1.3,0.9c0.2-0.1,0.3-0.2,0.4-0.4c0.1-0.3,0-0.4-0.5-1c-0.4-0.4-0.5-0.5-0.5-0.7c0-0.1,0-0.3,0-0.4
	c0.1-0.3,0.4-0.4,0.7-0.2c0.3,0.1,0.3,0.1,1.3,1.1c2,1.9,3.3,3.5,3.9,4.7c0.3,0.5,0.4,0.6,0.7,0.6c0.4,0,0.6-0.3,0.5-0.7
	c-0.1-0.6-1.1-2.1-2.3-3.4C19.1,11,17,8.9,16.6,8.6c-1-0.8-2.4-0.5-2.8,0.5c0,0.1-0.1,0.1-0.2,0c-0.3-0.1-0.8-0.1-1.2,0
	c-0.3,0.1-0.4,0.2-0.6,0.4c-0.1,0.1-0.3,0.4-0.4,0.5c-0.1,0.2-0.1,0.2-0.2,0.2c0,0-0.2,0-0.4,0c-0.6,0-1.1,0.3-1.5,0.8l-0.1,0
	l-0.9-0.9c-0.9-0.8-0.9-0.9-1.2-1C6.6,9,6,9.2,5.5,9.6C5.3,9.8,5.2,9.9,5.1,10.1"/>
</svg>
