<?xml version="1.0" encoding="UTF-8"?>
<svg width="340px" height="161px" viewBox="0 0 340 161" version="1.1" xmlns="http://www.w3.org/2000/svg" xmlns:xlink="http://www.w3.org/1999/xlink">
    <!-- Generator: Sketch 51.3 (57544) - http://www.bohemiancoding.com/sketch -->
    <title>household</title>
    <desc>Created with Sketch.</desc>
    <defs>
        <rect id="path-1" x="0" y="0" width="340" height="161"></rect>
    </defs>
    <g id="Landing-Page" stroke="none" stroke-width="1" fill="none" fill-rule="evenodd">
        <g id="DataMain/Desktop-" transform="translate(-102.000000, -912.000000)">
            <g id="household" transform="translate(102.000000, 912.000000)">
                <mask id="mask-2" fill="white">
                    <use xlink:href="#path-1"></use>
                </mask>
                <use id="Mask" fill="#D8D8D8" xlink:href="#path-1"></use>
                <g mask="url(#mask-2)">
                    <g transform="translate(-1.000000, 0.000000)">
                        <path d="M341,118.775496 C341,118.84409 340.951051,118.912684 340.921682,118.981278 L340.921682,151 L0,151 L0,0 L340.906998,0 L340.906998,118.775496 L341,118.775496 Z" id="Shape" fill="#ECF4FF" fill-rule="nonzero"></path>
                        <path d="M341,119.546363 C341,119.615445 340.951051,119.684527 340.921682,119.753608 L340.921682,152 L0,152 L0,63.0868046 L114.95075,63.0868046 C116.644369,63.0868046 118.362463,63.0687117 120.105031,63.032526 C123.218158,62.9667338 126.403077,62.8466631 129.659786,62.6723138 C131.275088,62.5884288 132.905074,62.4946749 134.55464,62.3811834 C150.409072,61.3301534 167.73196,59.1688803 185.647126,56.4598873 C202.069361,53.9926806 218.981081,51.0320326 235.711692,48.0713845 C274.650255,41.0990583 312.575583,33.9737654 340.906998,32 L340.906998,119.546363 L341,119.546363 Z" id="Shape" fill="#CEDEF4" fill-rule="nonzero"></path>
                        <path d="M341,119.546363 C341,119.615445 340.951051,119.684527 340.921682,119.753608 L340.921682,152 L0,152 L0,63.0868046 L114.95075,63.0868046 C116.644369,63.0868046 118.362463,63.0687117 120.105031,63.032526 C123.218158,62.9667338 126.403077,62.8466631 129.659786,62.6723138 C131.275088,62.5884288 132.905074,62.4946749 134.55464,62.3811834 C150.409072,61.3301534 167.73196,59.1688803 185.647126,56.4598873 C202.069361,53.9926806 218.981081,51.0320326 235.711692,48.0713845 C274.650255,41.0990583 312.575583,33.9737654 340.906998,32 L340.906998,119.546363 L341,119.546363 Z" id="Shape" fill="#CEDEF4" fill-rule="nonzero"></path>
                        <path d="M341,119.546363 C341,119.615445 340.951051,119.684527 340.921682,119.753608 L340.921682,152 L0,152 L0,63.0868046 L114.95075,63.0868046 C116.644369,63.0868046 118.362463,63.0687117 120.105031,63.032526 C123.218158,62.9667338 126.403077,62.8466631 129.659786,62.6723138 C131.275088,62.5884288 132.905074,62.4946749 134.55464,62.3811834 C150.409072,61.3301534 167.73196,59.1688803 185.647126,56.4598873 C202.069361,53.9926806 218.981081,51.0320326 235.711692,48.0713845 C274.650255,41.0990583 312.575583,33.9737654 340.906998,32 L340.906998,119.546363 L341,119.546363 Z" id="Shape" fill="#C8DAF2" fill-rule="nonzero"></path>
                        <path d="M327,115.535363 C327,123.795673 323.407305,121.78425 317.883162,121.78425 C312.359019,121.78425 307,123.7807 307,115.535363 C307,107.290026 311.478359,82 317.007506,82 C322.536652,82 327,107.275052 327,115.535363 Z" id="Shape" fill="#0E4493" fill-rule="nonzero"></path>
                        <path d="M317,111.758083 C317,122.293469 311.247683,119.723742 302.412551,119.723742 C293.57742,119.723742 285,122.293469 285,111.758083 C285,101.222696 292.162437,69 300.997569,69 C309.8327,69 317,101.227628 317,111.758083 Z" id="Shape" fill="#1A62AF" fill-rule="nonzero"></path>
                        <path d="M341.905912,118.592099 L342,118.592099 C341.97524,118.660744 341.95048,118.729389 341.920768,118.798034 C340.554016,122.122411 337.632335,120.695576 333.749967,120.695576 C332.561486,120.695576 331.38291,120.827963 330.283566,120.916221 C328.58503,121.053511 327.02515,121.092736 325.787149,120.4259 C325.047807,120.002604 324.458172,119.363992 324.098517,118.597002 C323.921991,118.237578 323.773011,117.865519 323.652837,117.483973 C323.168338,115.686076 322.951466,113.827784 323.009077,111.96786 C323.009077,108.045291 323.504277,101.411247 324.405541,94.3162999 C326.128837,80.484341 329.293166,65 332.908127,65 C336.944007,65 340.41536,84.2941362 341.955432,99.0478987 L341.905912,118.592099 Z" id="Shape" fill="#1A62AF" fill-rule="nonzero"></path>
                        <path d="M341.945528,112.993912 C337.429303,113.641153 331.051126,113.028235 330.24395,112.572224 C329.504607,112.148917 328.914973,111.510288 328.555318,110.743278 C328.378792,110.383844 328.229812,110.011775 328.109638,109.630219 C327.625139,107.832274 327.408266,105.973933 327.465878,104.113959 C327.465878,100.191286 327.961078,93.5570639 328.862342,86.461928 C329.808174,78.8568445 331.194734,70.7712336 332.823943,65 C329.233742,65.1667136 326.094173,80.5534009 324.405541,94.3072752 C323.519133,101.382798 323.009077,108.036633 323.009077,111.959306 C322.951466,113.81928 323.168338,115.677621 323.652837,117.475566 C323.773011,117.857123 323.921991,118.229191 324.098517,118.588625 C324.458172,119.355635 325.047807,119.994265 325.787149,120.417571 C327.02515,121.099136 328.58503,121.059909 330.283566,120.907906 C331.402718,120.819646 332.581294,120.687255 333.749967,120.687255 C337.632335,120.687255 340.554016,122.114128 341.920768,118.789662 C341.95048,118.721015 341.97524,118.652368 342,118.583722 L341.920768,118.583722 L341.945528,112.993912 Z" id="Shape" fill="#1556A4" fill-rule="nonzero"></path>
                        <path d="M313.080839,111.641284 C304.688193,111.641284 297.88558,98.2251178 297.88558,81.670553 C297.868721,77.4062364 298.345183,73.1543368 299.305425,69 C291.26774,72.6500939 285,101.124725 285,110.856684 C285,121.266031 293.572557,118.727047 302.412551,118.727047 C311.252545,118.727047 317,121.266031 317,110.856684 C317,110.778712 317,110.695866 317,110.617893 C315.796632,111.27474 314.451022,111.626112 313.080839,111.641284 Z" id="Shape" fill="#1556A4" fill-rule="nonzero"></path>
                        <path d="M341,32 L341,47.740113 C322.438546,48.8079096 299.749605,51.7740113 275.361686,55.3531073 C264.815294,56.8954802 253.955547,58.5466102 242.968498,60.2125706 L239.83004,60.7069209 L236.006117,61.2853107 L235.379404,61.3792373 C225.244293,62.9018362 215.040634,64.4194915 204.925107,65.8283898 C179.827241,69.3580508 155.24837,72.3142655 133.504394,73.4809322 L133.09801,73.5056497 C127.300922,73.8121469 121.709474,74 116.362835,74 L0,74 L0,63.1440678 L114.98211,63.1440678 C116.676191,63.1440678 118.394753,63.1259416 120.137797,63.0896893 C123.251773,63.0237759 126.43756,62.903484 129.695158,62.7288136 C131.310901,62.644774 132.941332,62.5508475 134.591348,62.4371469 C150.450105,61.3841808 167.777719,59.2189266 185.697772,56.5049435 C202.124487,54.0331921 219.040821,51.0670904 235.775996,48.1009887 C274.725182,41.1158192 312.660856,33.9774011 341,32 Z" id="Shape" fill="#C2D6F1" fill-rule="nonzero"></path>
                        <path d="M0,119 L0,75 C26.7172642,76.4789916 66.2539129,81.7737815 100.706928,90.5343417 C104.50127,91.5203361 108.236785,92.5063305 111.884059,93.5613445 L112.506645,93.7388235 C121.065974,96.2038095 129.144882,98.9251541 136.424724,101.853557 C137.258106,102.188796 138.076782,102.524034 138.875849,102.869132 C140.614514,103.598768 142.304156,104.343193 143.944776,105.102409 C144.663773,105.431074 145.371331,105.759739 146.06745,106.088403 C152.817849,109.356975 158.54858,112.872045 162.901778,116.613894 L163.166499,116.835742 C163.607702,117.21042 164.068513,117.575238 164.539129,117.930196 L164.990136,118.265434 C165.318587,118.511933 165.656842,118.758431 166,118.98028 L0,119 Z" id="Shape" fill="#A0BBE1" fill-rule="nonzero"></path>
                        <rect id="Rectangle-path" fill="#A0BBE1" fill-rule="nonzero" x="0" y="150.9" width="341" height="1"></rect>
                        <path d="M166,119 L158.901122,119 C158.410868,118.679552 157.954932,118.364034 157.464678,118.048515 L157.307797,117.949916 C156.729297,117.580168 156.131187,117.21042 155.51837,116.855462 C154.537862,116.267152 153.508328,115.693632 152.42977,115.134902 C149.484723,113.60083 146.462308,112.221861 143.374778,111.003585 L143.056113,110.880336 C142.188364,110.535238 141.310809,110.2 140.413644,109.894342 L139.24684,109.470364 C138.32026,109.135126 137.37407,108.804818 136.418074,108.48437 L134.3443,107.799104 L133.363792,107.483585 C127.328766,105.590476 120.81329,103.914286 113.969344,102.430364 C113.17023,102.252885 112.361311,102.085266 111.54749,101.937367 C107.24306,101.040112 102.816066,100.221737 98.310632,99.472381 C72.9399882,95.2227451 45.069049,93.1373669 21.7133491,92.1710924 C20.105316,92.1020728 18.5185273,92.0412698 16.9529829,91.9886835 C14.7762552,91.9048739 12.6485529,91.8407843 10.579681,91.7816246 C7.23614885,91.6830252 4.02498523,91.6090756 0.980507974,91.5548459 L0,91.5548459 L0,75 C26.7188423,76.4789916 66.2578263,81.7737815 100.712877,90.5343417 C104.507442,91.5203361 108.243178,92.5063305 111.890667,93.5613445 L112.51329,93.7388235 C121.073125,96.2038095 129.15251,98.9251541 136.432782,101.853557 C137.266214,102.188796 138.084938,102.524034 138.884052,102.869132 C140.622819,103.598768 142.312562,104.343193 143.953278,105.102409 C144.672317,105.431074 145.379917,105.759739 146.076078,106.088403 C152.826875,109.356975 158.557944,112.872045 162.9114,116.613894 L163.176137,116.835742 C163.617366,117.21042 164.078204,117.575238 164.548848,117.930196 L164.999882,118.265434 C165.313644,118.531653 165.65192,118.792941 166,119 Z" id="Shape" fill="#95B2DD" fill-rule="nonzero"></path>
                        <path d="M116,116.535363 C116,124.795673 112.407305,122.78425 106.883162,122.78425 C101.359019,122.78425 96,124.7807 96,116.535363 C96,108.290026 100.478359,83 106.007506,83 C111.536652,83 116,108.275052 116,116.535363 Z" id="Shape" fill="#1A62AF" fill-rule="nonzero"></path>
                        <path d="M112.888444,114.299339 C107.385693,114.299339 102.008004,116.295789 102.008004,108.050452 C102.008004,102.904603 103.743872,91.1704702 106.385193,83.0449201 C106.260353,83.0169105 106.132946,83.0018571 106.005003,83 C100.502251,83 96,108.275052 96,116.535363 C96,124.795673 101.347674,122.78425 106.885443,122.78425 C112.423212,122.78425 116,124.7807 116,116.535363 C116,115.926446 115.974987,115.217706 115.924962,114.439091 C114.984492,114.379197 113.963982,114.299339 112.888444,114.299339 Z" id="Shape" fill="#1556A4" fill-rule="nonzero"></path>
                        <path d="M27,116.534556 C27,124.795897 23.4073055,122.784223 17.8831624,122.784223 C12.3590193,122.784223 7,124.780922 7,116.534556 C7,108.28819 11.473355,83 16.9974981,83 C22.5216412,83 27,108.273215 27,116.534556 Z" id="Shape" fill="#0E4493" fill-rule="nonzero"></path>
                        <path d="M239.895887,23 L228.977292,23 C228.155337,23 227.367047,23.3096703 226.785837,23.8608871 C226.204627,24.4121038 225.878106,25.1597141 225.878106,25.9392523 C225.878106,26 225.878106,26.0607477 225.878106,26.1214953 L223.099186,26.1214953 C221.387553,26.1214953 220,27.4374434 220,29.0607477 C220,30.6840519 221.387553,32 223.099186,32 L234.012853,32 C235.724487,32 237.112039,30.6840519 237.112039,29.0607477 C237.112039,29 237.112039,28.9392523 237.112039,28.8785047 L239.900814,28.8785047 C241.612447,28.8785047 243,27.5625566 243,25.9392523 C243,24.3159481 241.612447,23 239.900814,23 L239.895887,23 Z" id="Shape" fill="#FFFFFF" fill-rule="nonzero"></path>
                        <path d="M93.7799935,12.4173982 L86.079445,12.4173982 C85.9310083,10.4899719 84.3420407,9.00192841 82.4302678,9.00000045 L71.7083575,9.00000045 C70.3985468,8.99934792 69.1880187,9.7058148 68.5332724,10.8529872 C67.8785261,12.0001596 67.8791644,13.4135246 68.5349468,14.5600917 L62.678606,14.5600917 C60.646968,14.5600917 59,16.2255718 59,18.2800457 C59,20.3345196 60.646968,21.9999997 62.678606,21.9999997 L89.7188125,21.9999997 C91.4874948,22.0007181 93.0042051,20.7236296 93.3238464,18.9645172 L93.7652791,18.9645172 C95.5517661,18.9645172 97,17.500005 97,15.6934377 C97,13.8868703 95.5517661,12.4223581 93.7652791,12.4223581 L93.7799935,12.4173982 Z" id="Shape" fill="#FFFFFF" fill-rule="nonzero"></path>
                        <path d="M140,109.982484 C140,122.789479 134.965745,119.663671 127.23422,119.663671 C119.502695,119.663671 112,122.789479 112,109.982484 C112,97.1754896 118.266041,58 126.002434,58 C133.738828,58 140,97.1754896 140,109.982484 Z" id="Shape" fill="#0E4493" fill-rule="nonzero"></path>
                        <path d="M5,116.606082 C5,116.828234 5,117.040513 5,117.247855 C4.99085722,117.898796 4.94305399,118.548458 4.85687904,119.192918 C4.8245614,119.454564 4.78301016,119.686589 4.73684211,119.923551 C4.1089566,122.920134 2.42843952,123.112666 0,122.964565 L0,89 C0.309325946,89.8194939 0.609418283,90.7031649 0.923361034,91.6411398 C3.36565097,99.6879771 5,111.471904 5,116.606082 Z" id="Shape" fill="#1A62AF" fill-rule="nonzero"></path>
                        <path d="M21,113.235192 C21,115.235592 20.723301,116.633929 20.1990291,117.668116 C19.8982517,118.259275 19.44807,118.761437 18.8932039,119.124718 C16.6456311,120.581319 12.7281553,119.780189 7.72815534,119.780189 C7.35275081,119.780189 6.9789644,119.780189 6.60679612,119.780189 C6.05825243,119.780189 5.51941748,119.809321 4.98058252,119.828742 C3.23786408,119.901572 1.54854369,119.998679 0,119.993823 L0,83.5253753 C1.94174757,80.194613 4.13106796,78 6.44174757,78 C9.12621359,78 11.6407767,80.9569012 13.8009709,85.2198885 C14.9575896,87.5646427 15.9502616,89.9867919 16.7718447,92.468909 C19.3834951,100.169476 21,108.913941 21,113.235192 Z" id="Shape" fill="#1A62AF" fill-rule="nonzero"></path>
                        <path d="M20.8786127,113.480891 C20.3396532,113.480891 19.8006936,113.442082 19.2520231,113.43238 C18.8765318,113.43238 18.502659,113.43238 18.1304046,113.43238 C13.1243931,113.43238 9.20601156,114.252214 6.96277457,112.777482 C6.40778013,112.414519 5.95749434,111.912797 5.6566474,111.322154 C5.13225434,110.313127 4.85549133,108.896608 4.85549133,106.893107 C4.85549133,102.575635 6.47236994,93.838817 9.08947977,86.1449843 C9.71098266,84.3161224 10.3907514,82.5454737 11.1142197,80.9106555 C9.65757225,79.0963469 8.07953757,78 6.44323699,78 C4.13202312,78 1.94219653,80.1926938 0,83.5205433 L0,119.986206 C1.54890173,119.986206 3.23861272,119.894035 4.9817341,119.821268 C5.52069364,119.821268 6.05965318,119.78246 6.6083237,119.772757 C6.98381503,119.772757 7.35768786,119.772757 7.7299422,119.772757 C12.7359538,119.772757 16.6543353,120.592592 18.8975723,119.11786 C19.4525667,118.754897 19.9028525,118.253174 20.2036994,117.662532 C20.6892486,116.692314 20.9708671,115.377668 21,113.548806 L20.8786127,113.480891 Z" id="Shape" fill="#1556A4" fill-rule="nonzero"></path>
                        <rect id="Rectangle-path" fill="#F7EEE2" fill-rule="nonzero" x="136" y="86" width="103" height="32"></rect>
                        <rect id="Rectangle-path" fill="#D1CBCC" fill-rule="nonzero" x="240" y="91" width="50" height="27"></rect>
                        <rect id="Rectangle-path" fill="#F7EEE2" fill-rule="nonzero" x="240" y="91" width="50" height="27"></rect>
                        <rect id="Rectangle-path" fill="#88AAD9" fill-rule="nonzero" x="136" y="86" width="103" height="34"></rect>
                        <rect id="Rectangle-path" fill="#688DC9" fill-rule="nonzero" x="136" y="117" width="103" height="2"></rect>
                        <rect id="Rectangle-path" fill="#688DC9" fill-rule="nonzero" x="240" y="91" width="50" height="28"></rect>
                        <rect id="Rectangle-path" fill="#4B71B7" fill-rule="nonzero" x="240" y="117" width="50" height="2"></rect>
                        <polygon id="Shape" fill="#3584D1" fill-rule="nonzero" points="286.129799 55 235 55 240.143205 89.9706745 291 90"></polygon>
                        <polygon id="Shape" fill="#2D77C9" fill-rule="nonzero" points="286.129799 55 235 55 240.143205 89.9706745 291 90"></polygon>
                        <polygon id="Shape" fill="#266CC2" fill-rule="nonzero" points="235 55 239.416652 90 291 90"></polygon>
                        <rect id="Rectangle-path" fill="#F9D0C2" fill-rule="nonzero" x="144" y="92" width="13" height="13"></rect>
                        <rect id="Rectangle-path" fill="#F9D0C2" fill-rule="nonzero" x="159" y="92" width="13" height="13"></rect>
                        <rect id="Rectangle-path" fill="#F9D0C2" fill-rule="nonzero" x="144" y="92" width="13" height="2"></rect>
                        <rect id="Rectangle-path" fill="#F9D0C2" fill-rule="nonzero" x="159" y="92" width="13" height="2"></rect>
                        <rect id="Rectangle-path" fill="#F9D0C2" fill-rule="nonzero" x="204" y="92" width="13" height="13"></rect>
                        <rect id="Rectangle-path" fill="#F9D0C2" fill-rule="nonzero" x="220" y="92" width="13" height="13"></rect>
                        <rect id="Rectangle-path" fill="#F3AA94" fill-rule="nonzero" x="144" y="104" width="13" height="2"></rect>
                        <rect id="Rectangle-path" fill="#F3AA94" fill-rule="nonzero" x="159" y="104" width="13" height="2"></rect>
                        <rect id="Rectangle-path" fill="#F3AA94" fill-rule="nonzero" x="204" y="104" width="13" height="2"></rect>
                        <rect id="Rectangle-path" fill="#F3AA94" fill-rule="nonzero" x="220" y="104" width="13" height="2"></rect>
                        <rect id="Rectangle-path" fill="#F9D0C2" fill-rule="nonzero" x="249" y="99" width="13" height="14"></rect>
                        <rect id="Rectangle-path" fill="#F9D0C2" fill-rule="nonzero" x="265" y="99" width="13" height="14"></rect>
                        <rect id="Rectangle-path" fill="#F3AA94" fill-rule="nonzero" x="249" y="111" width="13" height="2"></rect>
                        <rect id="Rectangle-path" fill="#F3AA94" fill-rule="nonzero" x="265" y="111" width="13" height="2"></rect>
                        <rect id="Rectangle-path" fill="#FF9E75" fill-rule="nonzero" x="132" y="83" width="112" height="3"></rect>
                        <rect id="Rectangle-path" fill="#1A62AF" fill-rule="nonzero" x="132" y="83" width="112" height="3"></rect>
                        <rect id="Rectangle-path" fill="#1A62AF" fill-rule="nonzero" x="240" y="90" width="51" height="3"></rect>
                        <path d="M341,119 C340.975526,119.068418 340.951051,119.136836 340.921682,119.205254 L340.921682,151 L0,151 L0,119 L341,119 Z" id="Shape" fill="#6AA1DA" fill-rule="nonzero"></path>
                        <path d="M194.99347,119 L194.99347,126.3692 C195.058339,127.514015 194.637339,128.629791 193.845208,129.412436 C193.383066,129.806079 192.804214,130.01396 192.211144,129.999272 L0,129.999272 L0,123.071496 L181.43515,123.071496 L181.43515,119 L194.99347,119 Z" id="Shape" fill="#FFFFFF" fill-rule="nonzero" opacity="0.5"></path>
                        <polygon id="Shape" fill="#3584D1" fill-rule="nonzero" points="239.081414 48 136.918586 48 132 84 244 84"></polygon>
                        <polygon id="Shape" fill="#2D77C9" fill-rule="nonzero" points="136.918586 48.1028851 132 84 244 84 168.665377 48"></polygon>
                        <rect id="Rectangle-path" fill="#1A62AF" fill-rule="nonzero" x="148" y="40" width="9" height="14"></rect>
                        <path d="M184.832669,93 L190.167331,93 C192.284055,93 194,94.8398923 194,97.1095146 L194,119 L181,119 L181,97.0893204 C181.010366,94.8275885 182.723278,92.9999727 184.832669,93 Z" id="Shape" fill="#1A62AF" fill-rule="nonzero"></path>
                        <path d="M144,118.66 C144,121.78 127,121.78 127,118.66 C127,115.54 130.804397,106 135.5,106 C140.195603,106 144,115.54 144,118.66 Z" id="Shape" fill="#1A62AF" fill-rule="nonzero"></path>
                        <path d="M131.374577,115.32988 C129.841319,112.281751 132.812007,109.073195 134.9969,106 C130.536077,106.646725 127,115.640709 127,118.653743 C127,121.782086 144,121.782086 144,118.653743 C143.991,118.240906 143.946095,117.829784 143.86584,117.425468 C138.834837,118.097259 133.133033,118.864305 131.374577,115.32988 Z" id="Shape" fill="#1556A4" fill-rule="nonzero"></path>
                        <path d="M154,121.129159 C154,123.623614 137,123.623614 137,121.129159 C137,118.634703 140.804397,111 145.5,111 C150.195603,111 154,118.650359 154,121.129159 Z" id="Shape" fill="#1A62AF" fill-rule="nonzero"></path>
                        <path d="M140.392334,118.958491 C139.462796,117.647623 141.192503,113.273153 143.86133,111 C139.951522,112.359964 137,118.172952 137,120.239902 C137,122.586699 154,122.586699 154,120.239902 C154,120.190806 154,120.1368 154,120.082794 C149.31398,121.03035 141.801015,120.937068 140.392334,118.958491 Z" id="Shape" fill="#1556A4" fill-rule="nonzero"></path>
                        <path d="M303,118.66 C303,121.78 282,121.78 282,118.66 C282,115.54 286.699336,106 292.5,106 C298.300664,106 303,115.54 303,118.66 Z" id="Shape" fill="#1A62AF" fill-rule="nonzero"></path>
                        <path d="M303,118.66 C303,121.78 282,121.78 282,118.66 C282,115.54 286.699336,106 292.5,106 C298.300664,106 303,115.54 303,118.66 Z" id="Shape" fill="#1A62AF" fill-rule="nonzero"></path>
                        <path d="M286.689369,116.9749 C285.727575,115.157631 288.717608,110.077309 291.752492,107 C286.305648,107.768072 282,116.658635 282,119.650602 C282,122.783133 303,122.783133 303,119.650602 C302.996891,119.423512 302.976902,119.196974 302.940199,118.972892 C296.755814,119.806225 288.553156,120.493976 286.689369,116.9749 Z" id="Shape" fill="#1556A4" fill-rule="nonzero"></path>
                        <path d="M36.5036898,138.994235 C35.063868,141.098427 36.6780627,142.586192 41.7697508,141.775105 C46.861439,140.964018 49.1432327,138.994235 50.737499,138.836652 C52.3317654,138.679069 52.8449198,137.205208 49.6862796,137.038356 C46.5276394,136.871503 37.7342641,137.200573 36.5036898,138.994235 Z" id="Shape" fill="#578DCC" fill-rule="nonzero"></path>
                        <path d="M70.3836264,141.579753 C70.7115425,141.903557 71.1035309,142.164835 71.537877,142.349112 C72.5415732,142.818234 73.6807683,143.315502 74.6242427,142.743174 C74.9805549,142.527378 75.2515528,142.180228 75.587791,141.931594 C76.2753229,141.424942 77.1485386,141.368648 77.9615325,141.18569 C78.7745264,141.002733 79.6527605,140.585215 79.9337955,139.736105 C80.0582031,139.431957 80.0050171,139.08926 79.793278,138.8307 C79.681563,138.744216 79.5488913,138.684622 79.406855,138.657125 C77.4546659,138.1364 74.4937622,137.695426 72.5164808,138.272445 C71.3572117,138.610213 69.0988953,140.130167 70.3836264,141.579753 Z" id="Shape" fill="#578DCC" fill-rule="nonzero"></path>
                        <path d="M75.6117433,111.998839 C74.826289,112.041809 73.6232515,110.88162 73.4144598,110.260943 C73.2056682,109.640265 73.071445,109.229664 73.071445,109.229664 C73.071445,109.229664 72.9421931,109.60207 72.6389481,109.186694 C72.3357031,108.771317 71.8634363,107.864174 72.0374293,107.783008 C72.2114223,107.701843 72.6836891,108.360715 72.897452,108.32252 C73.1112149,108.284324 73.1112149,107.248271 73.8419856,107.124135 C74.5727563,107 76.4270249,106.875865 76.8545506,107.248271 C77.2820763,107.620677 77.7145733,107.124135 77.7145733,107.124135 C77.7145733,107.124135 77.9283362,108.031279 78.2116962,108.031279 C78.4950563,108.031279 79.2059421,107.329436 78.942467,107.907144 C78.6789918,108.484851 78.7287041,108.900227 78.50997,109.229664 C78.2912359,109.5591 77.6897171,109.353799 77.6897171,109.353799 C77.7741682,109.623152 77.7741682,109.910425 77.6897171,110.179777 C77.5455515,110.719289 76.3822838,111.960643 75.6117433,111.998839 Z" id="Shape" fill="#ABC4E6" fill-rule="nonzero"></path>
                        <path d="M75.8979834,112.753067 C75.2716489,112.785276 74.3795967,112.01227 74,111.409509 C74,111.409509 74,111.437117 74,111.45092 C74,112.302147 74.9489917,114 75.9739027,114 C76.9988138,114 78,112.035276 78,112.035276 L77.9051008,111 C77.7437722,111.519939 76.633452,112.716258 75.8979834,112.753067 Z" id="Shape" fill="#3584D1" fill-rule="nonzero"></path>
                        <path d="M78.2314075,108.141458 C77.972224,108.141458 77.7329777,107.130447 77.7329777,107.130447 C77.7329777,107.130447 77.2993438,107.662558 76.8706942,107.268796 C76.4420446,106.875034 74.5829016,106.992099 73.8452255,107.130447 C73.1075495,107.268796 73.1125338,108.418156 72.898209,108.466046 C72.6838842,108.513936 72.2053916,107.774302 72.0359255,107.864761 C71.8664594,107.955219 72.3349833,108.971551 72.6390255,109.429167 C72.9430677,109.886782 73.0726594,109.477057 73.0726594,109.477057 C73.0726594,109.477057 73.2022511,109.939993 73.4165759,110.631738 C73.436184,110.69439 73.4612135,110.754957 73.4913404,110.812655 C73.5212462,110.876509 73.5611206,110.940362 73.600995,111.009536 C73.5987118,111.021833 73.5987118,111.034488 73.600995,111.046784 C73.600995,112.031189 74.5978545,114 75.6694785,114 C76.7411025,114 77.7977736,111.722565 77.7977736,111.722565 L77.7529149,111.153206 L77.6980876,110.525315 C77.7765812,110.225993 77.7765812,109.909407 77.6980876,109.610085 C77.7628835,109.610085 78.3111563,109.812287 78.5155125,109.466415 C78.7198687,109.120542 78.6849786,108.636322 78.9441621,107.992467 C79.2033455,107.348613 78.490591,108.130816 78.2314075,108.130816 L78.2314075,108.141458 Z" id="Shape" fill="#3584D1" fill-rule="nonzero"></path>
                        <path d="M78.7019854,106.786589 C78.5815082,106.289972 78.7019854,104.636236 78.3405538,103.647968 C77.9791222,102.659699 76.8948274,101.884976 75.0505994,102.014097 C73.6468545,102.164681 72.4871963,103.253925 72.1637802,104.725627 C72.1220766,105.415925 71.8440522,107.049796 72.1220766,107.437158 C72.2842574,107.352733 72.7244626,108.038065 72.9237133,107.998335 C73.1229641,107.958606 73.1229641,106.880946 73.8041237,106.751826 C74.4852833,106.622705 76.2136678,106.493585 76.6121693,106.880946 C77.0106708,107.268308 77.4138061,106.751826 77.4138061,106.751826 C77.4138061,106.751826 77.6130568,107.695399 77.8771799,107.695399 C78.141303,107.695399 78.8039277,106.965371 78.5583395,107.566278 C79.383145,106.786589 78.8224626,107.258375 78.7019854,106.786589 Z" id="Shape" fill="#3584D1" fill-rule="nonzero"></path>
                        <path d="M73.6422414,111 C72.9190719,111.535657 72.0629428,111.876106 71.1606322,111.98684 C70.1836207,112.043774 69.2408046,113.851399 68.6204023,114.178765 C68,114.50613 68,114.83824 68,114.83824 L68.2833333,116.209379 C68.2833333,116.209379 70.2031609,116.266312 70.4278736,116.484555 C70.6525862,116.702799 70.9896552,115.882013 70.9896552,115.882013 C71.1062882,116.533745 71.1635023,117.194198 71.1606322,117.855694 C71.1154533,119.412927 70.9833628,120.966635 70.7649425,122.509975 C70.5234379,123.810212 70.447964,125.134412 70.5402299,126.452592 C70.5402299,126.504781 70.5646552,126.533248 70.5939655,126.542736 C70.808908,126.613903 71.6002874,125.669762 72.3428161,125.959172 C73.187931,126.286537 74.0916667,127.856942 75.5034483,127.985042 C76.9152299,128.113141 79.1672414,127.3825 79.4114943,127.164256 C79.6557471,126.946013 79.2991379,125.683996 79.0744253,124.697155 C78.8497126,123.710315 78.5126437,122.998651 78.8497126,121.51839 C79.1867816,120.03813 80.1491379,118.230504 80.1491379,117.684895 C80.1491379,117.139286 80.9942529,117.794017 81.5022989,118.723924 C81.754283,119.243334 82.1967373,119.652749 82.7431034,119.872075 C82.7431034,119.872075 84.1548851,118.121382 85,118.121382 C84.3273113,117.847637 83.7838746,117.340145 83.4758621,116.698054 C82.8554598,115.549904 82.4060345,114.325842 81.4436782,113.851399 C80.4813218,113.376957 78.7373563,112.81237 78.4002874,112.152895 L78.0632184,111.49342 L73.6422414,111 Z" id="Shape" fill="#3584D1" fill-rule="nonzero"></path>
                        <path d="M69,119 C66.6904167,120.434639 54.6777083,125.890237 50.3364583,126.942637 L46,128 C46,128 52.5597917,125.800883 56.0625,124.36128 C59.5652083,122.921677 69,119 69,119 Z" id="Shape" fill="#1A62AF" fill-rule="nonzero"></path>
                        <path d="M74.6958965,130.405263 C73.4794826,130.482906 72.8253222,129.852628 71.7927219,130.861986 C70.7601217,131.871344 70.2951812,132.442247 69.8248345,131.574474 C69.3544878,130.7067 68.7976405,130.386994 69.073361,129.994212 C69.6024024,129.380587 69.8692502,128.633438 69.8302408,127.875018 C69.8323157,127.123915 69.7159585,126.375925 69.4842386,125.650778 C69.4842386,125.650778 70.5654955,124.079651 72.5441954,125.819765 C74.5228954,127.559879 74.9770233,127.139694 74.9770233,127.139694 C74.9770233,127.139694 75.0689301,127.244741 74.8851165,128.825002 L74.6958965,130.405263 Z" id="Shape" fill="#1A62AF" fill-rule="nonzero"></path>
                        <path d="M80,134.824009 C78.7482759,135.219989 77.3103448,134.824009 76.4155172,134.824009 C75.5206897,134.824009 75.5206897,134.36886 75.6086207,133.640622 C75.6965517,132.912384 74.9827586,131.041722 74.9827586,131.041722 C75.0878506,130.521515 75.1483658,129.995095 75.1637931,129.466907 C75.1637931,128.756875 74.537931,128.756875 74.2689655,128.206145 L74,127.655414 C74,127.655414 78.0293103,127.760099 79.3741379,127 C79.2677567,127.635296 79.2677567,128.280881 79.3741379,128.916177 C79.5871909,129.826754 79.7374652,130.747836 79.8241379,131.674379 C79.8189655,132.361654 80,134.824009 80,134.824009 Z" id="Shape" fill="#1A62AF" fill-rule="nonzero"></path>
                        <path d="M80,134.824009 C78.7482759,135.219989 77.3103448,134.824009 76.4155172,134.824009 C75.5206897,134.824009 75.5206897,134.36886 75.6086207,133.640622 C75.6965517,132.912384 74.9827586,131.041722 74.9827586,131.041722 C75.0878506,130.521515 75.1483658,129.995095 75.1637931,129.466907 C75.1637931,128.756875 74.537931,128.756875 74.2689655,128.206145 L74,127.655414 C74,127.655414 78.0293103,127.760099 79.3741379,127 C79.2677567,127.635296 79.2677567,128.280881 79.3741379,128.916177 C79.5871909,129.826754 79.7374652,130.747836 79.8241379,131.674379 C79.8189655,132.361654 80,134.824009 80,134.824009 Z" id="Shape" fill="#0E4493" fill-rule="nonzero"></path>
                        <path d="M72.9498052,126.515768 C74.4366989,126.815335 73.9090915,126.6635 73.9090915,126.6635 L72.858673,125.539096 C72.7483551,125.440608 72.6428336,125.354431 72.5373121,125.276461 C71.4773008,124.599357 70,125.379053 70,125.379053 C70.1668266,125.908818 70.268108,126.452119 70.3021752,127 C70.4364752,126.109505 71.6595652,126.253133 72.9498052,126.515768 Z" id="Shape" fill="#1556A4" fill-rule="nonzero"></path>
                        <path d="M72.2342882,132.801505 C71.7583959,132.916071 71.2213798,132.947316 71.0161785,132.608826 C70.6188739,131.942261 73.4829598,130.421659 72.9284797,130.421659 C72.3739997,130.421659 71.2563077,131.275695 70.7804153,131.848525 C70.304523,132.421354 70.9375908,130.807017 70.7018276,129 C70.740174,129.9157 70.5152958,130.819578 70.0643939,131.56211 C69.8242647,132.035996 70.304523,132.416147 70.7018276,133.462863 C71.0991322,134.509578 71.4571429,133.884673 72.2342882,132.801505 Z" id="Shape" fill="#1556A4" fill-rule="nonzero"></path>
                        <path d="M75.6117433,111.998839 C74.826289,112.041809 73.6232515,110.88162 73.4144598,110.260943 C73.2056682,109.640265 73.071445,109.229664 73.071445,109.229664 C73.071445,109.229664 72.9421931,109.60207 72.6389481,109.186694 C72.3357031,108.771317 71.8634363,107.864174 72.0374293,107.783008 C72.2114223,107.701843 72.6836891,108.360715 72.897452,108.32252 C73.1112149,108.284324 73.1112149,107.248271 73.8419856,107.124135 C74.5727563,107 76.4270249,106.875865 76.8545506,107.248271 C77.2820763,107.620677 77.7145733,107.124135 77.7145733,107.124135 C77.7145733,107.124135 77.9283362,108.031279 78.2116962,108.031279 C78.4950563,108.031279 79.2059421,107.329436 78.942467,107.907144 C78.6789918,108.484851 78.7287041,108.900227 78.50997,109.229664 C78.2912359,109.5591 77.6897171,109.353799 77.6897171,109.353799 C77.7741682,109.623152 77.7741682,109.910425 77.6897171,110.179777 C77.5455515,110.719289 76.3822838,111.960643 75.6117433,111.998839 Z" id="Shape" fill="#B7D1ED" fill-rule="nonzero"></path>
                        <path d="M75.8979834,112.753067 C75.2716489,112.785276 74.3795967,112.01227 74,111.409509 C74,111.409509 74,111.437117 74,111.45092 C74,112.302147 74.9489917,114 75.9739027,114 C76.9988138,114 78,112.035276 78,112.035276 L77.9051008,111 C77.7437722,111.519939 76.633452,112.716258 75.8979834,112.753067 Z" id="Shape" fill="#ABC4E6" fill-rule="nonzero"></path>
                        <path d="M75.8979834,112.753067 C75.2716489,112.785276 74.3795967,112.01227 74,111.409509 C74,111.409509 74,111.437117 74,111.45092 C74,112.302147 74.9489917,114 75.9739027,114 C76.9988138,114 78,112.035276 78,112.035276 L77.9051008,111 C77.7437722,111.519939 76.633452,112.716258 75.8979834,112.753067 Z" id="Shape" fill="#7397CF" fill-rule="nonzero"></path>
                        <path d="M72.4781214,120.662418 C72.0587828,119.057311 72.1778543,119.502908 71.8827642,118.228404 C71.5876741,116.953901 71.2252828,117.068894 71.287407,115.832721 C71.3495312,114.596549 70.7697051,112.8477 70.5108542,113.010607 C70.2520032,113.173513 69.3149628,115.114017 68,115.665024 C68,115.665024 70.0293914,115.72252 70.2727113,115.942923 C70.5160312,116.163326 70.8680685,115.334419 70.8680685,115.334419 C70.991539,115.992615 71.0521715,116.659591 71.0492641,117.327628 C71.001304,118.900263 70.8613193,120.469339 70.6299256,122.027958 C70.3755137,123.337996 70.2955365,124.671954 70.3917827,126 C71.007848,125.180676 72.0691369,124.021166 73.0838326,124.131367 C74.6369383,124.299065 75.0562768,125.405871 74.9941526,124.519468 C74.9320283,123.633065 72.8974599,122.267526 72.4781214,120.662418 Z" id="Shape" fill="#1A62AF" fill-rule="nonzero"></path>
                        <path d="M81.6362579,117.935341 C80.1711223,116.088642 79.6438763,115.217841 79.5272738,116.894383 C79.4106713,118.570926 77.8897693,119.666934 78.0063718,121.283421 C78.0808827,121.871948 78.2307919,122.448754 78.4525031,123 C78.4274355,122.495426 78.4752315,121.989898 78.5944539,121.498619 C78.9442614,119.937182 79.942987,118.030428 79.942987,117.454899 C79.942987,116.879369 80.8200405,117.570005 81.3472865,118.550907 C81.6087937,119.098801 82.0679691,119.530668 82.6349835,119.762021 C82.6349835,119.762021 82.7769344,119.581856 83,119.331625 C82.736377,119.0864 82.8529795,119.476759 81.6362579,117.935341 Z" id="Shape" fill="#1A62AF" fill-rule="nonzero"></path>
                        <path d="M79.5778626,124.172463 C79.4835405,123.760905 79.369361,123.392416 79.2948961,123 C79.2623965,123.522695 79.1258785,124.034481 78.8927859,124.507453 C77.9743858,126.608316 77.4580961,127.048588 78.8927859,126.995946 C78.9622864,126.995946 79.0317869,126.995946 79.1062518,126.995946 C79.395283,126.922543 79.671353,126.808026 79.9253654,126.656171 C80.1537243,126.436035 79.8062216,125.167861 79.5778626,124.172463 Z" id="Shape" fill="#1A62AF" fill-rule="nonzero"></path>
                        <path d="M68.1496934,116.055526 C67.4982476,116.343992 69.1868638,117.422194 69.1397197,117.914005 C69.0925756,118.405816 69.2382937,119.881249 69.6840198,119.933268 C70.1297459,119.985286 70.7211902,120.207547 70.9226241,119.389438 C71.124058,118.571329 70.9226241,118.443648 70.4297539,117.696473 C70.1500762,117.282147 69.932981,116.82063 69.7868797,116.329805 C69.7868797,116.329805 68.6425636,115.837994 68.1496934,116.055526 Z" id="Shape" fill="#B7D1ED" fill-rule="nonzero"></path>
                        <path d="M69.2123276,117.883783 C69.1577422,118.363117 69.3169497,119.877812 69.7900233,119.930539 C70.2630969,119.983266 70.7316217,120.151033 71,119.647732 C70.8544389,119.307405 70.5860606,118.967078 70.4177556,118.933524 C70.1038894,118.876004 69.7354379,118.876004 69.6808524,118.104276 C69.626267,117.332549 68.8939127,116.776521 68.1570096,116 C67.4701431,116.292394 69.2623642,117.385275 69.2123276,117.883783 Z" id="Shape" fill="#7397CF" fill-rule="nonzero"></path>
                        <path d="M86.6007688,120.605931 C86.1161431,120.020173 85.6315174,118.687228 85.3698196,118.530411 L84.453877,118 C83.9006184,118.317474 83.4088295,118.723112 83,119.19919 C84.1049465,119.660416 84.77373,119.858744 84.77373,120.499849 C84.77373,121.140954 85.3892046,121.140954 85.7817514,121.459201 C86.1742982,121.777447 86.6201538,122.257123 86.8430816,121.832794 C87.0660094,121.408466 87.1047795,121.191689 86.6007688,120.605931 Z" id="Shape" fill="#B7D1ED" fill-rule="nonzero"></path>
                        <path d="M85.5472888,120.975737 C85.4312736,121.280036 85.1387137,120.468573 85.1387137,120.058431 C85.1387137,119.648289 84.3114754,119.33958 83.3430013,119 C83.2168979,119.114663 83.1008827,119.224917 83,119.321939 C84.1500631,119.762952 84.8461538,119.952588 84.8461538,120.565595 C84.8461538,121.178603 85.4867591,121.178603 85.8953342,121.482902 C86.3039092,121.787201 86.7679697,122.245854 87,121.840122 C86.1878941,121.482902 85.6633039,120.667028 85.5472888,120.975737 Z" id="Shape" fill="#7397CF" fill-rule="nonzero"></path>
                        <path d="M74.4847994,133.014652 C74.4847994,133.014652 74.7129446,132.21231 74.9410899,131.127663 C74.2814525,131.078136 73.7954039,130.840405 73.2300005,131.177191 L73.160565,131.221765 C72.9898796,131.340563 72.8363473,131.482215 72.7042745,131.642747 C72.4314921,131.969627 72.2083065,132.242027 72,132.450041 C72.2582985,132.920941 72.5712629,133.359807 72.9324197,133.757561 C72.5494076,134.816055 72.2622487,135.906723 72.0743952,137.016456 C72.073968,137.890131 72.624106,138.669557 73.4482264,138.962878 C74.1376218,139.250136 74.3657671,137.818798 74.3657671,136.446892 C74.3657671,135.074987 74.9361302,134.465801 74.9956463,133.643649 C75.0551625,132.821496 74.4847994,133.014652 74.4847994,133.014652 Z" id="Shape" fill="#B7D1ED" fill-rule="nonzero"></path>
                        <path d="M77.3645934,135 C77.4205047,135.587993 77.308682,135.936802 77.0431032,136.873604 C76.7775243,137.810406 77.7979062,138.164199 78.496798,137.929998 C79.1956897,137.695798 78.9627258,135.114609 78.9627258,135.114609 L77.3645934,135 Z" id="Shape" fill="#B7D1ED" fill-rule="nonzero"></path>
                        <path d="M38.2033163,127.837217 C38.2862612,129.027222 38.9644576,129.027222 38.9644576,129.027222 C38.9644576,129.027222 38.8815127,130.728636 39.6426541,130.900744 C40.4037955,131.072852 40.2330266,131.156448 41.2478818,129.966442 C42.2627369,128.776436 43.1995263,129.199331 43.360537,128.604328 C43.5215476,128.009325 44.0387335,127.070105 43.7850197,126.04729 C43.5313059,125.024475 43.2971085,124.94088 43.7850197,124.345877 C44.2729308,123.750874 43.8679646,122.728059 43.1946472,123.067358 C42.5417118,123.502427 41.9451161,124.017806 41.4186507,124.601581 C40.7134599,124.59169 40.0082461,124.619595 39.3059954,124.685176 C39.0522816,124.768771 37.7837127,124.193438 37.2762851,124.429472 C36.7688575,124.665506 35.6710575,125.963695 36.0955402,126.04729 C36.5200228,126.130886 38.2081954,125.875182 38.2081954,126.130886 L38.2033163,127.837217 Z" id="Shape" fill="#3584D1" fill-rule="nonzero"></path>
                        <path d="M50.9032653,127.670814 C50.5714147,127.070888 49.6528139,127.239462 48.8207827,125.608258 C47.9887515,123.977054 47.8204215,126.03961 48.3398398,126.981643 C48.8592581,127.923676 48.0079892,128.870667 48.0079892,128.870667 C48.0079892,128.870667 45.5070863,126.639536 44.5115345,126.550291 C43.9873068,126.505668 43.3284151,126.391633 42.8186156,126.287513 C42.9051853,127.184924 42.4963839,127.988131 42.3376727,128.523602 C42.1789616,129.059073 41.2555513,128.697134 40.2551901,129.896987 C39.2548289,131.096839 39.4231589,131.012552 38.672888,130.839019 C37.9226172,130.665487 38.0043774,128.949996 38.0043774,128.949996 C38.0043774,128.949996 37.3358668,128.949996 37.2541066,127.750143 C37.0040163,129.55488 37.8360474,130.5812 38.0043774,131.716597 C38.1727074,132.851995 38.7546483,133.347802 38.2544677,134.195631 C37.6665024,135.152933 37.3147969,136.244063 37.2300594,137.373752 C37.2300594,138.405031 36.3980282,138.66285 37.89857,139.356979 C39.3991118,140.051109 38.9806915,140.130438 38.5670806,138.757053 C38.1534697,137.383669 38.8171709,136.010284 39.3173515,135.752464 C39.8175321,135.494645 40.567803,135.668177 40.8996535,136.783742 C41.2315041,137.899308 40.567803,138.414947 40.8178933,139.446225 C41.0679836,140.477503 42.150105,139.877577 42.150105,139.188405 C42.150105,138.499234 42.0683447,136.957275 42.2318653,136.61021 C42.3953859,136.263145 43.8959277,136.010284 43.8959277,136.352391 C43.8959277,136.694497 43.3139868,137.983595 43.5640771,138.499234 C43.8141674,139.014873 44.4778685,138.672766 44.5644382,137.725775 C44.651008,136.778784 44.7327683,135.4054 45.2329488,134.979006 C45.7331294,134.552612 46.06498,134.721186 45.9014594,136.010284 C45.7379389,137.299381 44.651008,139.356979 45.3195186,139.188405 C45.9880292,139.019831 46.1515497,138.414947 46.6517303,137.125849 C47.1519109,135.836752 47.6520915,136.094571 48.2340324,134.12126 C48.5206411,132.895912 49.1592794,131.788251 50.0664247,130.943139 C50.653175,130.308506 51.2351159,128.27074 50.9032653,127.670814 Z" id="Shape" fill="#3584D1" fill-rule="nonzero"></path>
                        <path d="M50.9032653,127.670814 C50.5714147,127.070888 49.6528139,127.239462 48.8207827,125.608258 C47.9887515,123.977054 47.8204215,126.03961 48.3398398,126.981643 C48.8592581,127.923676 48.0079892,128.870667 48.0079892,128.870667 C48.0079892,128.870667 45.5070863,126.639536 44.5115345,126.550291 C43.9873068,126.505668 43.3284151,126.391633 42.8186156,126.287513 C42.9051853,127.184924 42.4963839,127.988131 42.3376727,128.523602 C42.1789616,129.059073 41.2555513,128.697134 40.2551901,129.896987 C39.2548289,131.096839 39.4231589,131.012552 38.672888,130.839019 C37.9226172,130.665487 38.0043774,128.949996 38.0043774,128.949996 C38.0043774,128.949996 37.3358668,128.949996 37.2541066,127.750143 C37.0040163,129.55488 37.8360474,130.5812 38.0043774,131.716597 C38.1727074,132.851995 38.7546483,133.347802 38.2544677,134.195631 C37.6665024,135.152933 37.3147969,136.244063 37.2300594,137.373752 C37.2300594,138.405031 36.3980282,138.66285 37.89857,139.356979 C39.3991118,140.051109 38.9806915,140.130438 38.5670806,138.757053 C38.1534697,137.383669 38.8171709,136.010284 39.3173515,135.752464 C39.8175321,135.494645 40.567803,135.668177 40.8996535,136.783742 C41.2315041,137.899308 40.567803,138.414947 40.8178933,139.446225 C41.0679836,140.477503 42.150105,139.877577 42.150105,139.188405 C42.150105,138.499234 42.0683447,136.957275 42.2318653,136.61021 C42.3953859,136.263145 43.8959277,136.010284 43.8959277,136.352391 C43.8959277,136.694497 43.3139868,137.983595 43.5640771,138.499234 C43.8141674,139.014873 44.4778685,138.672766 44.5644382,137.725775 C44.651008,136.778784 44.7327683,135.4054 45.2329488,134.979006 C45.7331294,134.552612 46.06498,134.721186 45.9014594,136.010284 C45.7379389,137.299381 44.651008,139.356979 45.3195186,139.188405 C45.9880292,139.019831 46.1515497,138.414947 46.6517303,137.125849 C47.1519109,135.836752 47.6520915,136.094571 48.2340324,134.12126 C48.5206411,132.895912 49.1592794,131.788251 50.0664247,130.943139 C50.653175,130.308506 51.2351159,128.27074 50.9032653,127.670814 Z" id="Shape" fill="#1A62AF" fill-rule="nonzero"></path>
                        <path d="M44.684909,136.191996 C44.684909,136.529564 44.0852796,137.80156 44.3429716,138.310358 C44.6006636,138.819156 45.2845384,138.481588 45.3737395,137.547161 C45.4629406,136.612733 45.547186,135.257569 46.06257,134.836832 C46.5779539,134.416095 46.9198913,134.582433 46.7514004,135.854428 C46.5829095,137.126424 45.4629406,139.156724 46.151771,138.990386 C46.8406015,138.824048 47.0090924,138.227189 47.5244763,136.955194 C48.0398603,135.683198 48.5552442,135.937597 49.1548736,133.990466 C49.450194,132.781374 50.1082441,131.688408 51.0429629,130.854508 C51.6425922,130.262541 52.2422216,128.227348 51.9002842,127.635381 C51.5583468,127.043414 50.6118244,127.209752 49.754503,125.600189 C48.8971816,123.990625 48.7237351,126.025818 49.2589415,126.955353 C49.7941479,127.884888 48.9170041,128.819315 48.9170041,128.819315 C48.9170041,128.819315 46.3400844,126.617785 45.3142721,126.529724 C45.1309144,126.529724 44.9326898,126.490585 44.7344652,126.461232 C46.7464448,127.664735 48.698957,129.685251 47.5096095,132.273272 C46.5184865,134.391634 44.7988882,135.101016 43,136.441503 C43.1387572,136.108828 44.684909,135.854428 44.684909,136.191996 Z" id="Shape" fill="#0E4493" fill-rule="nonzero"></path>
                        <rect id="Rectangle-path" fill="#1451A2" fill-rule="nonzero" x="182" y="116" width="13" height="2"></rect>
                        <rect id="Rectangle-path" fill="#3584D1" fill-rule="nonzero" x="0" y="151" width="342" height="76"></rect>
                        <rect id="Rectangle-path" fill="none" x="0" y="0" width="341" height="151"></rect>
                    </g>
                </g>
            </g>
        </g>
    </g>
</svg>