<?xml version="1.0" encoding="UTF-8"?>
<svg width="29px" height="32px" viewBox="0 0 29 32" version="1.1" xmlns="http://www.w3.org/2000/svg" xmlns:xlink="http://www.w3.org/1999/xlink">
    <!-- Generator: Sketch 51.2 (57519) - http://www.bohemiancoding.com/sketch -->
    <title>Icon/Support/Certificate/Blue</title>
    <desc>Created with Sketch.</desc>
    <defs></defs>
    <g id="*Styles" stroke="none" stroke-width="1" fill="none" fill-rule="evenodd" stroke-linecap="round" stroke-linejoin="round">
        <g id="Iconography" transform="translate(-251.000000, -404.000000)" stroke="#112E51">
            <g id="Icon/Support/Certificate/Blue" transform="translate(252.000000, 405.000000)">
                <g id="Orion_certificate2">
                    <polyline id="Shape" points="17 27.4576271 0 27.4576271 0 0 12 0 20 8.13559322 20 11.3389831"></polyline>
                    <polyline id="Shape" points="12 0 12 8.13559322 20 8.13559322"></polyline>
                    <ellipse id="Oval" cx="21" cy="17.2881356" rx="2" ry="2.03389831"></ellipse>
                    <polyline id="Shape" points="17 21.4576271 17 29.6440678 21 26.9491525 25 29.6440678 25 21.4067797"></polyline>
                    <path d="M26.45,18.5084746 C26.4510943,18.4373998 26.4338551,18.3672741 26.4,18.3050847 C26.1333333,17.6542373 26.1333333,16.9220339 26.4,16.2711864 C26.6299945,15.5893909 26.558372,14.8397138 26.2036228,14.2156932 C25.8488735,13.5916725 25.2457662,13.154468 24.55,13.0169492 L24.5,13.0169492 C23.9107504,13.0130132 23.356646,12.7312652 23,12.2542373 C22.5464347,11.6087703 21.8177138,11.2215489 21.0376627,11.2115075 C20.2576116,11.2014661 19.519486,11.5698051 19.05,12.2033898 L19,12.2033898 C18.6359483,12.6521793 18.1174618,12.9430893 17.55,13.0169492 C16.8711868,13.1359244 16.2729809,13.5400022 15.9019394,14.1301856 C15.5308978,14.7203691 15.4213012,15.4421311 15.6,16.1186441 C15.6029536,16.1731236 15.62022,16.2258007 15.65,16.2711864 C15.947844,16.9153221 15.947844,17.6609491 15.65,18.3050847 C15.4201749,19.0093414 15.5109798,19.7811244 15.8976983,20.4103613 C16.2844167,21.0395981 16.9268011,21.4608009 17.65,21.559322 L17.7,21.559322 C18.2408048,21.5892726 18.7299983,21.8954172 19,22.3728814 C19.4535653,23.0183483 20.1822862,23.4055697 20.9623373,23.4156111 C21.7423884,23.4256526 22.480514,23.0573135 22.95,22.4237288 L23,22.4237288 C23.4041485,21.9636703 23.9512738,21.6585485 24.55,21.559322 C25.2175989,21.4387358 25.8062046,21.042184 26.1757327,20.4640436 C26.5452608,19.8859032 26.6626636,19.1778784 26.5,18.5084746 L26.45,18.5084746 Z" id="Shape"></path>
                </g>
            </g>
        </g>
    </g>
</svg>