<?xml version="1.0" encoding="UTF-8"?>
<svg width="32px" height="31px" viewBox="0 0 32 31" version="1.1" xmlns="http://www.w3.org/2000/svg" xmlns:xlink="http://www.w3.org/1999/xlink">
    <!-- Generator: Sketch 51.2 (57519) - http://www.bohemiancoding.com/sketch -->
    <title>Icon/Support/Poverty/Blue</title>
    <desc>Created with Sketch.</desc>
    <defs></defs>
    <g id="*Styles" stroke="none" stroke-width="1" fill="none" fill-rule="evenodd" stroke-linecap="round" stroke-linejoin="round">
        <g id="Iconography" transform="translate(-303.000000, -816.000000)" stroke="#112E51">
            <g id="Icon/Support/Poverty/Blue" transform="translate(304.000000, 817.000000)">
                <g id="Orion_pay">
                    <path d="M25,17 L30,17 L30,28 L25,28 L25,17 Z M25,26.1 C24,26.1 17.55,29 14,29 C11.9,29 10.05,27.9 6,26 C4.1,25.1 0,22.7 0,21 C0,19.3 5.45,21.55 10.05,23" id="Shape"></path>
                    <circle id="Oval" cx="16.05" cy="4" r="4"></circle>
                    <circle id="Oval" cx="9" cy="13" r="4"></circle>
                    <path d="M17.05,25 L12.05,25 C10.9454305,25 10.05,24.1045695 10.05,23 C10.05,21.8954305 10.9454305,21 12.05,21 L14.05,21 C20.05,21 17.8421927,18.0080491 24.8421927,18.0080491" id="Shape"></path>
                </g>
            </g>
        </g>
    </g>
</svg>