<?xml version="1.0" encoding="UTF-8"?>
<svg width="30px" height="27px" viewBox="0 0 30 27" version="1.1" xmlns="http://www.w3.org/2000/svg" xmlns:xlink="http://www.w3.org/1999/xlink">
    <!-- Generator: Sketch 51.2 (57519) - http://www.bohemiancoding.com/sketch -->
    <title>Icon/Support/Units/Blue</title>
    <desc>Created with Sketch.</desc>
    <defs></defs>
    <g id="*Styles" stroke="none" stroke-width="1" fill="none" fill-rule="evenodd" stroke-linecap="round" stroke-linejoin="round">
        <g id="Iconography" transform="translate(-359.000000, -693.000000)" stroke="#112E51">
            <g id="Icon/Support/Units/Blue" transform="translate(359.000000, 694.000000)">
                <g id="HousingUnits">
                    <polyline id="Shape" points="5.8 14.85 15 7.5 24.2 14.85"></polyline>
                    <polyline id="Shape" points="12.25 25 12.25 18.25 17.8 18.25 17.8 25"></polyline>
                    <polyline id="Shape" points="8.25 12.9 8.25 25 21.75 25 21.75 8.4 19 8.4 19 10.7"></polyline>
                    <polyline id="Shape" points="0 5.7 7.1 0 14.2 5.7"></polyline>
                    <polyline id="Shape" points="12.3 9.65 12.3 0.7 10.15 0.7 10.15 2.45"></polyline>
                    <polyline id="Shape" points="1.9 4.15 1.9 13.5 7.5 13.5"></polyline>
                    <polyline id="Shape" points="15.8 5.7 22.9 0 30 5.7"></polyline>
                    <polyline id="Shape" points="21.75 13.5 28.1 13.5 28.1 0.7 25.95 0.7 25.95 2.45"></polyline>
                    <path d="M17.7,4.15 L17.7,9.65" id="Shape"></path>
                </g>
            </g>
        </g>
    </g>
</svg>