<?xml version="1.0" encoding="UTF-8"?>
<svg width="378px" height="138px" viewBox="0 0 378 138" version="1.1" xmlns="http://www.w3.org/2000/svg" xmlns:xlink="http://www.w3.org/1999/xlink">
    <!-- Generator: Sketch 51.3 (57544) - http://www.bohemiancoding.com/sketch -->
    <title>Group 2</title>
    <desc>Created with Sketch.</desc>
    <defs></defs>
    <g id="*Styles" stroke="none" stroke-width="1" fill="none" fill-rule="evenodd">
        <g id="Errors" transform="translate(-252.000000, -287.000000)" fill-rule="nonzero">
            <g id="Group-2" transform="translate(253.000000, 288.000000)">
                <path d="M375.736406,120.976201 C375.736406,134.25481 370.004312,130.976727 361.239449,130.976727 C352.474586,130.976727 343.876445,134.143957 343.876445,120.976201 C343.876445,107.808446 351.021714,67.2283231 359.802456,67.2283231 C368.583197,67.2283231 375.736406,107.776774 375.736406,120.976201 Z" id="Shape" stroke="#FF7043" stroke-width="2" fill="#FFC5B3"></path>
                <path d="M359.159998,117.088334 C359.159998,134.207208 349.76,129.963121 335.263043,129.963121 C320.766086,129.963121 306.75342,134.120109 306.75342,117.088334 C306.75342,100.05656 318.463722,47.7418527 332.952739,47.7418527 C347.441757,47.7418527 359.159998,99.969461 359.159998,117.088334 Z" id="Shape-2" stroke="#FF7043" stroke-width="2" fill="#FFC5B3"></path>
                <path d="M70.2162775,114.087692 C70.2162775,134.959732 62.0150967,129.923838 49.3520923,129.923838 C36.689088,129.923838 24.423043,135.038913 24.423043,114.087692 C24.423043,93.1364714 34.6090208,29.2297057 47.2799643,29.2297057 C59.9509079,29.2297057 70.2162775,93.2077341 70.2162775,114.087692 Z" id="Shape-4" stroke="#FF7043" stroke-width="2" fill="#FFC5B3"></path>
                <rect id="Rectangle-path" stroke="#FF7043" stroke-width="2" fill="#FFFFFF" x="65.4537552" y="75.0229113" width="168.136117" height="54.7059651"></rect>
                <rect id="Rectangle-path-3" stroke="#FF7043" stroke-width="2" fill="#FFFFFF" x="233.484291" y="83.791823" width="80.7653563" height="45.9089862"></rect>
                <polygon id="Shape-5" stroke="#FF7043" stroke-width="2" fill="#FFE2D9" points="317.183934 82.6038323 234.116213 82.5167335 234.036821 81.9624684 234.036821 74.844121 232.996788 74.844121 225.668917 25.3324116 309.220928 25.3324116"></polygon>
                <rect id="Rectangle-path-5" stroke="#FF7043" stroke-width="2" fill="#FFE2D9" x="78.1537376" y="86.7147936" width="21.4358067" height="20.5869893"></rect>
                <rect id="Rectangle-path-6" stroke="#FF7043" stroke-width="2" fill="#FFE2D9" x="102.576781" y="86.7147936" width="21.4358067" height="20.5869893"></rect>
                <rect id="Rectangle-path-7" stroke="#FF7043" stroke-width="2" fill="#FFE2D9" x="175.84591" y="86.7147936" width="21.4358067" height="20.5869893"></rect>
                <rect id="Rectangle-path-8" stroke="#FF7043" stroke-width="2" fill="#FFE2D9" x="200.268953" y="86.7147936" width="21.4358067" height="20.5869893"></rect>
                <rect id="Rectangle-path-13" stroke="#FF7043" stroke-width="2" fill="#FFE2D9" x="249.115039" y="97.4323524" width="21.4358067" height="20.5869893"></rect>
                <rect id="Rectangle-path-14" stroke="#FF7043" stroke-width="2" fill="#FFE2D9" x="274.515003" y="97.4323524" width="21.4358067" height="20.5869893"></rect>
                <rect id="Rectangle-path-17" stroke="#FF7043" stroke-width="2" fill="#FFF0EC" x="233.484291" y="82.8174995" width="83.2344436" height="3.16722913"></rect>
                <polygon id="Shape-7" stroke="#FF7043" stroke-width="2" fill="#FFE2D9" points="230.871457 13.6405293 65.6013867 13.6405293 57.6383815 72.2659405 238.834462 72.2659405"></polygon>
                <rect id="Rectangle-path-18" stroke="#FF7043" stroke-width="2" fill="#FFE2D9" x="84.0152679" y="0" width="15.8783754" height="22.8753124"></rect>
                <path d="M78.094455,130.337152 C78.094455,135.293866 49.8230077,135.293866 49.8230077,130.337152 C49.8230077,125.380439 56.1187835,110.098558 63.923005,110.098558 C71.7272265,110.098558 78.094455,125.301258 78.094455,130.337152 Z" id="Shape-9" stroke="#FF7043" stroke-width="2" fill="#FFC5B3"></path>
                <path d="M335.40394,130.337152 C335.40394,135.293866 301.868811,135.293866 301.868811,130.337152 C301.868811,125.380439 309.355465,110.098558 318.676072,110.098558 C327.996678,110.098558 335.40394,125.301258 335.40394,130.337152 Z" id="Shape-11" fill="#1A62AF"></path>
                <path d="M335.40394,130.337152 C335.40394,135.293866 301.868811,135.293866 301.868811,130.337152 C301.868811,125.380439 309.355465,110.098558 318.676072,110.098558 C327.996678,110.098558 335.40394,125.301258 335.40394,130.337152 Z" id="Shape-12" stroke="#FF7043" stroke-width="2" fill="#FFC5B3"></path>
                <path d="M144.827718,87.6914808 L154.57704,87.6914808 C158.459303,87.6914808 161.563526,90.5736593 161.563526,94.1684643 L161.563526,128.881296 L137.745962,128.881296 L137.745962,94.1684643 C137.971431,90.4592339 141.103022,87.5950762 144.827718,87.6914808 Z" id="Shape-13" stroke="#FF7043" stroke-width="2" fill="#FFD4C6"></path>
                <path d="M145.781625,98.9114297 L144.987707,98.9114297 L144.987707,100.320847 L143.58247,100.320847 L143.58247,98.9114297 L140.676728,98.9114297 L140.676728,97.9137526 L143.661862,93.5350583 L144.987707,93.5350583 L144.987707,97.7949815 L145.781625,97.7949815 L145.781625,98.9114297 Z M143.558653,97.7949815 L143.558653,96.6468609 C143.558653,96.4568272 143.558653,96.1796946 143.558653,95.8154633 C143.558653,95.4512319 143.558653,95.2400833 143.558653,95.1820174 C143.44177,95.4410043 143.303691,95.689946 143.145815,95.9263163 L141.899363,97.8028995 L143.558653,97.7949815 Z" id="Shape" fill="#FF7043"></path>
                <path d="M152.283696,97.0512483 C152.346222,97.9656905 152.142189,98.8786495 151.696196,99.6800485 C151.289362,100.258604 150.608861,100.582935 149.90194,100.5352 C149.194954,100.576807 148.518595,100.242538 148.123562,99.6562943 C147.674589,98.8644464 147.467614,97.9589305 147.528123,97.0512483 C147.460068,96.1323019 147.66143,95.2134487 148.107683,94.406612 C148.536347,93.8567138 149.195605,93.5350583 149.894001,93.5350583 C150.592396,93.5350583 151.251654,93.8567138 151.680318,94.406612 C152.139247,95.20925 152.349224,96.1295901 152.283696,97.0512483 Z M148.957176,97.0512483 C148.925144,97.6555915 148.997655,98.2609242 149.171534,98.8407328 C149.264862,99.164321 149.564385,99.3851188 149.90194,99.3791617 C150.233601,99.3655849 150.521784,99.147654 150.624406,98.8328147 C150.923155,97.6611095 150.923155,96.433469 150.624406,95.2617639 C150.53339,94.936672 150.236397,94.7118456 149.89797,94.7118456 C149.559543,94.7118456 149.26255,94.936672 149.171534,95.2617639 C148.9975,95.8415402 148.924985,96.4468999 148.957176,97.0512483 Z" id="Shape" fill="#FF7043"></path>
                <path d="M158.481608,98.9114297 L157.687689,98.9114297 L157.687689,100.320847 L156.282453,100.320847 L156.282453,98.9114297 L153.37671,98.9114297 L153.37671,97.9137526 L156.361845,93.5350583 L157.687689,93.5350583 L157.687689,97.7949815 L158.481608,97.7949815 L158.481608,98.9114297 Z M156.258635,97.7949815 L156.258635,96.6468609 C156.258635,96.4568272 156.258635,96.1796946 156.258635,95.8154633 C156.258635,95.4512319 156.258635,95.2400833 156.258635,95.1820174 C156.141753,95.4410043 156.003673,95.689946 155.845797,95.9263163 L154.599345,97.8028995 L156.258635,97.7949815 Z" id="Shape" fill="#FF7043"></path>
                <ellipse id="Oval" stroke="#FF7043" stroke-width="2" fill="#FFFFFF" cx="157.037479" cy="110.82662" rx="1.70692535" ry="1.70238566"></ellipse>
                <rect id="Rectangle-path-21" stroke="#FF7043" stroke-width="2" fill="#FFF0EC" x="57.6383815" y="72.0999408" width="181.19608" height="3.16722913"></rect>
                <path d="M31.8599602,120.976201 C31.8599602,134.25481 26.1278667,130.976727 17.3630035,130.976727 C8.59814026,130.976727 0,134.143957 0,120.976201 C0,107.808446 7.0896946,67.2283231 15.9339497,67.2283231 C24.7782047,67.2283231 31.8599602,107.776774 31.8599602,120.976201 Z" id="Shape-15" stroke="#FF7043" stroke-width="2" fill="#FFC5B3"></path>
                <path d="M94.7021243,132.489599 C94.7021243,136.329864 66.430677,136.329864 66.430677,132.489599 C66.430677,128.649333 72.7264528,116.970176 80.5306743,116.970176 C88.3348958,116.970176 94.7021243,128.736432 94.7021243,132.489599 Z" id="Shape-17" stroke="#FF7043" stroke-width="2" fill="#FFC5B3"></path>
            </g>
        </g>
    </g>
</svg>