<?xml version="1.0" encoding="UTF-8"?>
<svg width="86px" height="34px" viewBox="0 0 86 34" version="1.1" xmlns="http://www.w3.org/2000/svg" xmlns:xlink="http://www.w3.org/1999/xlink">
    <!-- Generator: Sketch 49 (51002) - http://www.bohemiancoding.com/sketch -->
    <title>Untitled</title>
    <desc>Created with Sketch.</desc>
    <defs></defs>
    <g id="Page-1" stroke="none" stroke-width="1" fill="none" fill-rule="evenodd">
        <path d="M57.64,27.17 L59.79,27.17 C60.2898102,27.1119511 60.7917031,27.2599915 61.18,27.58 C61.4785232,27.8251915 61.6480716,28.1937749 61.64,28.58 C61.6614086,28.952221 61.5231992,29.3159299 61.26,29.58 C61.1172629,29.7234799 60.9370817,29.8239655 60.74,29.87 C61.4211064,29.9902371 61.9057737,30.5992879 61.87,31.29 C61.8890146,31.6963588 61.7421666,32.0930138 61.4631227,32.3890265 C61.1840789,32.6850393 60.7967729,32.8550206 60.39,32.86 L59.67,32.86 L57.67,32.86 L57.67,27.17 L57.64,27.17 Z M58.77,28.17 L58.77,29.47 L59.68,29.47 C59.8466186,29.488097 60.0151133,29.4640263 60.17,29.4 C60.3535155,29.2594256 60.4607949,29.0411676 60.46,28.81 C60.4615303,28.5742085 60.3352451,28.3560795 60.13,28.24 C59.9799151,28.1842005 59.8198315,28.1603583 59.66,28.17 L58.76,28.17 L58.77,28.17 Z M58.77,30.41 L58.77,31.94 L59.77,31.94 C59.9558632,31.9525622 60.1410449,31.9071403 60.3,31.81 C60.4897928,31.6439167 60.5960333,31.4021281 60.59,31.15 C60.6043569,30.855732 60.4379854,30.5824075 60.17,30.46 C60.0280114,30.4147335 59.878525,30.3977464 59.73,30.41 L58.78,30.41 L58.77,30.41 Z" id="Shape" fill="#112E51" fill-rule="nonzero"></path>
        <path d="M67.7,28.76 L67.7,29.16 C67.8418805,28.9553611 68.0304023,28.7874053 68.25,28.67 C68.3653035,28.628086 68.4873354,28.6077473 68.61,28.61 C68.7520416,28.605252 68.8930065,28.6361955 69.02,28.7 L68.79,29.62 C68.6927039,29.5644529 68.5819893,29.5367742 68.47,29.54 C68.2050025,29.5484804 67.9583348,29.6773366 67.8,29.89 L67.8,32.84 L66.71,32.84 L66.71,28.76 L67.71,28.76 L67.7,28.76 Z" id="Shape" fill="#112E51" fill-rule="nonzero"></path>
        <path d="M72.32,31.73 L72.74,32.38 C72.3041488,32.7570401 71.7462948,32.9631263 71.17,32.96 C70.6046466,32.9811925 70.0582092,32.7545386 69.6738338,32.3394131 C69.2894584,31.9242877 69.1054457,31.3620555 69.17,30.8 C69.1209231,30.2031651 69.3075916,29.6108516 69.69,29.15 C70.0166183,28.7697954 70.4991725,28.559829 71,28.58 C71.4452539,28.563425 71.8793937,28.721294 72.21,29.02 C72.6324385,29.5309648 72.8307522,30.1908085 72.76,30.85 L72.76,31.1 L70.38,31.1 C70.3377967,31.3547076 70.4122576,31.6149001 70.5828187,31.8087196 C70.7533798,32.002539 71.0019937,32.1094769 71.26,32.1 C71.6521937,32.0912827 72.028271,31.942271 72.32,31.68 L72.32,31.73 Z M70.39,30.3 L71.65,30.3 C71.6723116,30.0816369 71.6269267,29.8616949 71.52,29.67 C71.4224718,29.4759069 71.2163836,29.3609731 71,29.38 C70.7871542,29.3973611 70.5925838,29.5070529 70.4675508,29.6801756 C70.3425177,29.8532983 70.2995617,30.0724892 70.35,30.28 L70.39,30.3 Z" id="Shape" fill="#112E51" fill-rule="nonzero"></path>
        <path d="M75.86,32.83 L75.86,32.54 C75.7834123,32.6206609 75.6997438,32.6942892 75.61,32.76 C75.3601834,32.9209308 75.0669531,33.00122 74.77,32.99 C74.3989616,33.0482362 74.021523,32.9351657 73.7436157,32.6825227 C73.4657084,32.4298798 73.3172843,32.0648932 73.34,31.69 C73.34,30.69 74.02,30.25 75.34,30.25 L75.58,30.25 L75.58,30.09 C75.58,29.63 75.49,29.47 75.09,29.47 C74.6500342,29.5077928 74.2301193,29.6709002 73.88,29.94 L73.42,29.16 C73.6289205,29.0202595 73.8538637,28.9061092 74.09,28.82 C74.4492432,28.6618045 74.8374678,28.580073 75.23,28.58 C75.788742,28.501389 76.3330539,28.7979172 76.57,29.31 C76.6374947,29.5538947 76.6611951,29.8078276 76.64,30.06 L76.64,31.46 L76.64,32.85 L75.86,32.85 L75.86,32.83 Z M75.56,31 C74.8,31 74.56,31.14 74.56,31.64 C74.5429291,31.7782685 74.585523,31.9172666 74.6771296,32.0222324 C74.7687361,32.1271982 74.9006933,32.1882066 75.04,32.19 C75.262383,32.1779981 75.4693701,32.0726889 75.61,31.9 L75.56,31 Z" id="Shape" fill="#112E51" fill-rule="nonzero"></path>
        <path d="M79.88,32.83 L79.88,32.54 C79.5791468,32.8110486 79.1846852,32.9544892 78.78,32.94 C78.2699224,32.984289 77.7837619,32.7155174 77.55,32.26 C77.4740607,31.9902617 77.4436433,31.7097463 77.46,31.43 L77.46,28.76 L78.54,28.76 L78.54,31.24 C78.5174385,31.4705695 78.5482329,31.7032387 78.63,31.92 C78.7133275,32.0481472 78.8571922,32.1238654 79.01,32.12 C79.287627,32.112011 79.541244,31.9605978 79.68,31.72 L79.68,28.72 L80.68,28.72 L80.68,32.79 L79.88,32.79 L79.88,32.83 Z" id="Shape" fill="#112E51" fill-rule="nonzero"></path>
        <path d="M13.7,9.63 C12.7360052,8.93419077 11.5788618,8.55663341 10.39,8.55 C9.02038098,8.52700703 7.7185288,9.14464713 6.87,10.22 C5.97049659,11.7245613 5.56484096,13.473077 5.71,15.22 C5.71,17.86 5.95,19.34 6.57,20.39 C7.39015212,21.8069778 8.93499507,22.6450551 10.57,22.56 C11.6843591,22.5600759 12.7736767,22.2294523 13.7,21.61 L14.12,21.3 L15.79,23.92 C14.1816587,25.0604138 12.2398428,25.6338123 10.27,25.55 C7.73093663,25.6839399 5.25941222,24.7055521 3.5,22.87 C1.78394597,20.9809408 0.885175562,18.4895493 1,15.94 C0.921251158,13.8507457 1.40473964,11.7786522 2.4,9.94 C4.03684539,7.12064259 7.07036553,5.40687586 10.33,5.46 C12.0890495,5.42036653 13.8231196,5.88162917 15.33,6.79 L13.7,9.63 Z" id="Shape" fill="#112E51" fill-rule="nonzero"></path>
        <path d="M27.13,21.26 L28.56,23.46 C27.0899814,24.7466703 25.203578,25.45718 23.25,25.46 C19.25,25.46 16.59,22.6 16.59,18.17 C16.59,15.64 17.11,13.96 18.35,12.58 C19.4593181,11.3037797 21.0907519,10.6040677 22.78,10.68 C24.2789135,10.6278403 25.7390609,11.1623905 26.85,12.17 C28.14,13.49 28.72,15.39 28.72,18.33 L28.72,19.18 L20.58,19.18 L20.58,19.29 C20.58,21.46 21.65,22.7 23.58,22.7 C24.9027024,22.6782208 26.17342,22.1812921 27.16,21.3 L27.13,21.26 Z M20.67,16.48 L24.9,16.48 L24.9,16.28 C24.9724073,15.5450275 24.8189108,14.8054536 24.46,14.16 C24.1129907,13.6072709 23.4913251,13.2887632 22.84,13.33 C21.44,13.33 20.64,14.43 20.64,16.39 L20.64,16.44 L20.67,16.48 Z" id="Shape" fill="#112E51" fill-rule="nonzero"></path>
        <path d="M33.8,10.77 L34.15,12.32 C34.6635978,11.9456773 35.205191,11.6113605 35.77,11.32 C36.5561174,10.9273141 37.4213039,10.7187118 38.3,10.71 C39.7297875,10.6221655 41.0687741,11.4144653 41.68,12.71 C41.8918404,13.3546381 41.986667,14.0319709 41.96,14.71 L41.96,25 L38.33,25 L38.33,15.84 C38.33,14.24 38.05,13.78 37.09,13.78 C36.1232613,13.8854853 35.2208267,14.3155518 34.53,15 L34.53,25 L30.84,25 L30.84,10.77 L33.84,10.77 L33.8,10.77 Z" id="Shape" fill="#112E51" fill-rule="nonzero"></path>
        <path d="M34.15,10.77 L34.15,12.32 C34.6635978,11.9456773 35.205191,11.6113605 35.77,11.32 C36.5561174,10.9273141 37.4213039,10.7187118 38.3,10.71 C39.7297875,10.6221655 41.0687741,11.4144653 41.68,12.71 C41.8924747,13.3544906 41.9873174,14.0319385 41.96,14.71 L41.96,25 L38.33,25 L38.33,15.84 C38.33,14.24 38.05,13.78 37.09,13.78 C36.1232613,13.8854853 35.2208267,14.3155518 34.53,15 L34.53,25 L30.84,25 L30.84,10.77 L34.15,10.77 Z" id="Shape" fill="#112E51" fill-rule="nonzero"></path>
        <path d="M53.46,14.32 C52.4025247,13.7078922 51.2110436,13.3645259 49.99,13.32 C49.5664814,13.2454428 49.1311386,13.3525595 48.7905687,13.6151217 C48.4499988,13.877684 48.2356474,14.2714489 48.2,14.7 C48.2,15.42 48.67,15.8 49.96,16.13 L51.67,16.57 C52.7728534,16.7278225 53.7741197,17.2999747 54.47,18.17 C54.995908,18.8533465 55.2680893,19.698169 55.24,20.56 C55.24,23.48 52.82,25.46 49.24,25.46 C47.2980622,25.3885795 45.4002088,24.8610174 43.7,23.92 L44.86,21.14 C46.266895,22.0455241 47.873203,22.5946892 49.54,22.74 C50.0007715,22.778607 50.4578228,22.6311539 50.8091576,22.3305467 C51.1604923,22.0299394 51.3768688,21.6011975 51.41,21.14 C51.41,20.14 50.72,19.68 49.24,19.41 L47.59,19.11 C46.5985974,18.8972127 45.6953201,18.3880294 45,17.65 C44.470788,16.9133413 44.1905207,16.0269959 44.2,15.12 C44.2,12.37 46.38,10.53 49.65,10.53 C51.331192,10.5350983 52.9857345,10.9504503 54.47,11.74 L53.46,14.32 Z" id="Shape" fill="#112E51" fill-rule="nonzero"></path>
        <path d="M65.05,25 L65.05,23.45 C64.5362059,23.8240302 63.9946356,24.1583329 63.43,24.45 C62.6435225,24.8416983 61.7785666,25.050245 60.9,25.06 C59.4666736,25.1520528 58.1225953,24.3590863 57.51,23.06 C57.301547,22.4147473 57.2101091,21.7374291 57.24,21.06 L57.24,10.76 L60.87,10.76 L60.87,19.92 C60.87,21.52 61.15,21.98 62.11,21.98 C63.08293,21.8601149 63.9859253,21.4121445 64.67,20.71 L64.67,10.71 L68.36,10.71 L68.36,25 L65.05,25 Z" id="Shape" fill="#112E51" fill-rule="nonzero"></path>
        <path d="M23.72,1.48 L23.72,5.18 C23.72,7.18 22.72,8.34 20.91,8.34 C19.1,8.34 18.16,7.17 18.16,5.16 L18.16,1.48 L17.31,1.48 L17.31,0.48 L20.14,0.48 L20.14,1.48 L19.31,1.48 L19.31,5.27 C19.31,6.61 19.86,7.33 20.93,7.33 C22,7.33 22.57,6.63 22.57,5.33 L22.57,1.48 L21.73,1.48 L21.73,0.48 L24.56,0.48 L24.56,1.48 L23.72,1.48" id="Shape" fill="#112E51" fill-rule="nonzero"></path>
        <path d="M28.2,8.22 L28.2,7.31 L28.87,7.31 L28.87,4.67 C28.87,3.57 28.52,3.25 27.93,3.25 C27.4097536,3.26935112 26.9350473,3.55191441 26.67,4 L26.67,7.31 L27.35,7.31 L27.35,8.22 L24.86,8.22 L24.86,7.31 L25.53,7.31 L25.53,3.31 L24.86,3.31 L24.86,2.44 L26.67,2.44 L26.67,3 C27.0413476,2.53092816 27.6119394,2.26415796 28.21,2.28 C29.37,2.28 30.01,2.93 30.01,4.56 L30.01,7.31 L30.69,7.31 L30.69,8.22 L28.2,8.22" id="Shape" fill="#112E51" fill-rule="nonzero"></path>
        <path d="M32.51,1.47 C32.3137345,1.47267016 32.1244487,1.39725553 31.9837925,1.26035014 C31.8431363,1.12344476 31.7626343,0.936265938 31.76,0.74 C31.76,0.334070709 32.0890707,0.005 32.495,0.005 C32.9009293,0.005 33.23,0.334070709 33.23,0.74 C33.23,0.933608038 33.1530895,1.11928639 33.016188,1.25618795 C32.8792864,1.39308951 32.693608,1.47 32.5,1.47 L32.51,1.47 Z M31.34,8.22 L31.34,7.31 L32.05,7.31 L32.05,3.31 L31.34,3.31 L31.34,2.44 L33.19,2.44 L33.19,7.31 L33.9,7.31 L33.9,8.22 L31.34,8.22 Z" id="Shape" fill="#112E51" fill-rule="nonzero"></path>
        <path d="M37.45,8.08 C37.1211395,8.25596731 36.7529399,8.34543637 36.38,8.34 C35.998106,8.33906776 35.6369049,8.16633248 35.3964499,7.86964194 C35.1559948,7.5729514 35.0618156,7.18380626 35.14,6.81 L35.14,3.35 L34.35,3.35 L34.35,2.44 L35.13,2.44 L35.13,0.78 L36.26,0.18 L36.26,2.44 L37.56,2.44 L37.56,3.35 L36.26,3.35 L36.26,6.7 C36.26,7.24 36.4,7.39 36.8,7.39 C36.9183901,7.38922571 37.0361287,7.3724059 37.15,7.34 L37.45,8.08 Z" id="Shape" fill="#112E51" fill-rule="nonzero"></path>
        <path d="M42.82,5.73 L39.24,5.73 C39.33,6.73 39.76,7.37 40.67,7.37 C41.238418,7.3831267 41.7912307,7.18340083 42.22,6.81 L42.71,7.59 C42.1282403,8.0945997 41.3799531,8.36540841 40.61,8.35 C39.19,8.35 38.13,7.26 38.13,5.35 C38.13,3.44 39.13,2.35 40.53,2.35 C41.93,2.35 42.84,3.69 42.84,5.25 C42.84,5.46 42.84,5.64 42.84,5.76 M40.47,3.26 C39.72,3.26 39.33,3.81 39.25,4.83 L41.71,4.83 C41.65,4 41.35,3.26 40.47,3.26" id="Shape" fill="#112E51" fill-rule="nonzero"></path>
        <path d="M47.23,8.22 L47.23,7.61 C46.8985529,8.06924248 46.3663568,8.34092301 45.8,8.34 C44.57,8.34 43.69,7.44 43.69,5.24 C43.69,3.24 44.69,2.32 45.75,2.32 C46.3197962,2.31582204 46.862012,2.56494822 47.23,3 L47.23,1 L46.54,1 L46.54,0.06 L48.35,0.06 L48.35,7.31 L49,7.31 L49,8.22 L47.23,8.22 Z M47.23,4.01 C46.950453,3.591065 46.5004416,3.31666778 46,3.26 C45.24,3.26 44.84,3.92 44.84,5.2 C44.84,6.81 45.29,7.41 46.05,7.41 C46.5496801,7.37480259 47.0010209,7.09877599 47.26,6.67 L47.26,4 L47.23,4.01 Z" id="Shape" fill="#112E51" fill-rule="nonzero"></path>
        <path d="M55.25,8.34 C54.6076278,8.36006407 53.9917434,8.08346926 53.58,7.59 L53.58,8.22 L52.58,8.22 L52.58,5.86 L53.52,5.86 C53.6269609,6.71988879 54.3635637,7.361724 55.23,7.35 C55.5645511,7.40875638 55.9075891,7.31109881 56.1610321,7.08494972 C56.414475,6.85880063 56.550421,6.52905711 56.53,6.19 C56.53,5.52 56.32,5.19 54.92,4.78 C53.52,4.37 52.64,3.86 52.64,2.48 C52.6077263,1.89587114 52.8328255,1.32689728 53.2560028,0.922955328 C53.6791801,0.519013373 54.2580029,0.320607129 54.84,0.38 C55.4757609,0.319433905 56.094849,0.606048758 56.46,1.13 L56.46,0.51 L57.46,0.51 L57.46,2.87 L56.51,2.87 C56.4969915,2.45969659 56.3207052,2.07156831 56.020288,1.7918048 C55.7198708,1.51204129 55.3201898,1.36379996 54.91,1.38 C54.626304,1.34859758 54.3427096,1.43992104 54.1306471,1.63096831 C53.9185847,1.82201558 53.7982673,2.09457654 53.8,2.38 C53.8,3.02 54.22,3.38 55.36,3.69 C56.9,4.13 57.7,4.69 57.7,6.04 C57.7383841,6.68635256 57.48613,7.31607942 57.0121352,7.75718476 C56.5381404,8.19829011 55.8919293,8.40468599 55.25,8.32" id="Shape" fill="#112E51" fill-rule="nonzero"></path>
        <path d="M65.54,8.22 L65.54,7.59 C65.1728086,8.06781979 64.6025867,8.34552527 64,8.34 C63.4818635,8.38720296 62.9704207,8.19594638 62.6103924,7.82034926 C62.2503641,7.44475214 62.0809174,6.92567547 62.15,6.41 C62.1317567,5.85720598 62.3604767,5.32496759 62.7740782,4.95775128 C63.1876798,4.59053496 63.7432539,4.42643744 64.29,4.51 C64.7331848,4.49681993 65.1727954,4.59298476 65.57,4.79 L65.57,4.25 C65.5948952,3.97791146 65.4975645,3.70883411 65.3043652,3.5156348 C65.1111659,3.32243549 64.8420885,3.22510475 64.57,3.25 C64.06899,3.23338129 63.573421,3.35813991 63.14,3.61 L62.72,2.81 C63.294098,2.44970331 63.9625437,2.26866593 64.64,2.29 C65.1859565,2.21705591 65.7358779,2.39253353 66.1386777,2.76822181 C66.5414775,3.1439101 66.7547866,3.68029165 66.72,4.23 L66.72,7.31 L67.35,7.31 L67.35,8.22 L65.54,8.22 Z M65.54,5.68 C65.1420713,5.48755945 64.7010946,5.40143117 64.26,5.43 C63.9845496,5.4134427 63.7145005,5.51144377 63.513778,5.70080463 C63.3130554,5.89016548 63.1995028,6.15405289 63.2,6.43 C63.1543529,6.70671762 63.2449031,6.98847042 63.4432163,7.18678368 C63.6415296,7.38509694 63.9232824,7.4756471 64.2,7.43 C64.7427784,7.4135962 65.2463598,7.14329147 65.56,6.7 L65.56,5.7 L65.54,5.68 Z" id="Shape" fill="#112E51" fill-rule="nonzero"></path>
        <path d="M76,5.73 L72.46,5.73 C72.55,6.73 72.99,7.37 73.89,7.37 C74.4616819,7.38466683 75.018164,7.18490403 75.45,6.81 L75.94,7.59 C75.3546852,8.09526198 74.6030637,8.36598823 73.83,8.35 C72.41,8.35 71.35,7.26 71.35,5.35 C71.35,3.44 72.35,2.35 73.75,2.35 C75.15,2.35 76.07,3.69 76.07,5.25 C76.07,5.46 76.07,5.64 76.07,5.76 M73.68,3.26 C72.93,3.26 72.55,3.81 72.47,4.83 L74.93,4.83 C74.87,4 74.56,3.26 73.68,3.26" id="Shape" fill="#112E51" fill-rule="nonzero"></path>
        <path d="M79.23,8.31 C78.7289702,8.35638099 78.2377552,8.15014568 77.92,7.76 L77.92,8.22 L77,8.22 L77,6.42 L77.78,6.42 C77.9763634,7.01161797 78.5266818,7.41331023 79.15,7.42 C79.3393125,7.44362187 79.5294442,7.38288181 79.669999,7.2538795 C79.8105537,7.12487719 79.8873382,6.94063941 79.88,6.75 C79.88,6.32 79.69,6.08 78.88,5.85 C77.51,5.42 77,5 77,4 C76.997741,3.54377715 77.1891468,3.10801635 77.5266422,2.80102899 C77.8641376,2.49404163 78.3160306,2.34465493 78.77,2.39 C79.2184282,2.34041099 79.6665174,2.48613105 80,2.79 L80,2.44 L80.88,2.44 L80.88,4.25 L80.1,4.25 C79.9664241,3.67079059 79.4543607,3.25783628 78.86,3.25 C78.6779284,3.22249604 78.4931757,3.27870924 78.3572771,3.40295937 C78.2213786,3.52720951 78.1488784,3.70619894 78.16,3.89 C78.16,4.24 78.29,4.49 79.16,4.76 C80.51,5.16 81,5.55 81,6.65 C80.9986278,7.11464417 80.8037375,7.55771011 80.4621684,7.87271272 C80.1205993,8.18771533 79.6632361,8.34617209 79.2,8.31" id="Shape" fill="#112E51" fill-rule="nonzero"></path>
        <path d="M65,32.83 L65,32.54 C64.6991468,32.8110486 64.3046852,32.9544892 63.9,32.94 C63.3899224,32.984289 62.9037619,32.7155174 62.67,32.26 C62.5935019,31.9903702 62.5630743,31.7097601 62.58,31.43 L62.58,28.76 L63.65,28.76 L63.65,31.24 C63.6270759,31.4705756 63.6578812,31.7033272 63.74,31.92 C63.8233275,32.0481472 63.9671922,32.1238654 64.12,32.12 C64.4006697,32.1135198 64.6579696,31.9621669 64.8,31.72 L64.8,28.72 L65.8,28.72 L65.8,32.79 L65,32.79 L65,32.83 Z" id="Shape" fill="#112E51" fill-rule="nonzero"></path>
        <path d="M79.88,14.32 C78.8223641,13.7082693 77.6309789,13.3649306 76.41,13.32 C75.9864814,13.2454428 75.5511386,13.3525595 75.2105687,13.6151217 C74.8699988,13.877684 74.6556474,14.2714489 74.62,14.7 C74.62,15.42 75.09,15.8 76.38,16.13 L78.09,16.57 C79.1964572,16.7254025 80.2016952,17.2977799 80.9,18.17 C81.4251634,18.8537376 81.6972565,19.6982862 81.67,20.56 C81.67,23.48 79.25,25.46 75.67,25.46 C73.716138,25.3875056 71.8072879,24.8528905 70.1,23.9 L71.26,21.12 C72.6670711,22.0251601 74.2732866,22.5742937 75.94,22.72 C76.4007715,22.758607 76.8578228,22.6111539 77.2091576,22.3105467 C77.5604923,22.0099394 77.7768688,21.5811975 77.81,21.12 C77.81,20.12 77.12,19.66 75.64,19.39 L74,19.08 C73.0121806,18.8755164 72.1093135,18.3770222 71.41,17.65 C70.8814182,16.9130256 70.6012178,16.0268919 70.61,15.12 C70.61,12.37 72.78,10.53 76.06,10.53 C77.7379076,10.5359185 79.3890159,10.9512701 80.87,11.74 L79.88,14.32 Z" id="Shape" fill="#112E51" fill-rule="nonzero"></path>
        <path d="M3.12,29.05 L53.28,29.05 C54.3238182,29.05 55.17,29.8961818 55.17,30.94 C55.17,31.9838182 54.3238182,32.83 53.28,32.83 L3.12,32.83 C2.07618182,32.83 1.23,31.9838182 1.23,30.94 C1.23,29.8961818 2.07618182,29.05 3.12,29.05" id="Shape" fill="#112E51" fill-rule="nonzero"></path>
        <path d="M61.43,8.08 C61.1011395,8.25596731 60.7329399,8.34543637 60.36,8.34 C59.978106,8.33906776 59.6169049,8.16633248 59.3764499,7.86964194 C59.1359948,7.5729514 59.0418156,7.18380626 59.12,6.81 L59.12,3.35 L58.33,3.35 L58.33,2.44 L59.11,2.44 L59.11,0.78 L60.24,0.18 L60.24,2.44 L61.54,2.44 L61.54,3.35 L60.24,3.35 L60.24,6.7 C60.24,7.24 60.38,7.39 60.78,7.39 C60.8983901,7.38922571 61.0161287,7.3724059 61.13,7.34 L61.43,8.08 Z" id="Shape" fill="#112E51" fill-rule="nonzero"></path>
        <path d="M70.65,8.08 C70.321298,8.25638193 69.9529893,8.34587749 69.58,8.34 C69.198106,8.33906776 68.8369049,8.16633248 68.5964499,7.86964194 C68.3559948,7.5729514 68.2618156,7.18380626 68.34,6.81 L68.34,3.35 L67.56,3.35 L67.56,2.44 L68.34,2.44 L68.34,0.78 L69.47,0.18 L69.47,2.44 L70.77,2.44 L70.77,3.35 L69.47,3.35 L69.47,6.7 C69.47,7.24 69.61,7.39 70.01,7.39 C70.1283901,7.38922571 70.2461287,7.3724059 70.36,7.34 L70.65,8.08 Z" id="Shape" fill="#112E51" fill-rule="nonzero"></path>
        <polygon id="Shape" fill="#112E51" fill-rule="nonzero" points="82.72 3.3 82.72 1.89 82.19 1.89 82.19 1.7 83.46 1.7 83.46 1.89 82.93 1.89 82.93 3.3"></polygon>
        <polygon id="Shape" fill="#112E51" fill-rule="nonzero" points="83.67 3.3 83.67 1.7 84 1.7 84.38 2.83 84.46 3.07 84.55 2.81 84.91 1.7 85.2 1.7 85.2 3.3 85 3.3 85 2 84.53 3.3 84.34 3.3 83.88 1.94 83.88 3.3 83.68 3.3"></polygon>
    </g>
</svg>